<svg width="434" height="434" viewBox="0 0 434 434" fill="none" xmlns="http://www.w3.org/2000/svg">
<g clip-path="url(#clip0_9354_22667)">
<path d="M297.424 387.955C312.855 372.519 312.855 347.493 297.424 332.057C281.994 316.621 256.976 316.621 241.545 332.057C226.114 347.493 226.114 372.519 241.545 387.955C256.976 403.391 281.994 403.391 297.424 387.955Z" fill="#E2D939"/>
<path d="M299.673 363.105C301.393 345.894 288.84 330.546 271.635 328.825C254.43 327.104 239.087 339.662 237.367 356.873C235.647 374.084 248.2 389.431 265.405 391.152C282.61 392.873 297.952 380.316 299.673 363.105Z" fill="#C9BD2D"/>
<path d="M268.531 328.688C267.929 328.688 267.338 328.707 266.748 328.743C283.206 329.669 296.273 343.313 296.273 360.007C296.273 376.702 283.212 390.346 266.748 391.271C267.338 391.302 267.935 391.326 268.531 391.326C285.823 391.326 299.84 377.304 299.84 360.007C299.84 342.71 285.823 328.688 268.531 328.688Z" fill="#B5A724"/>
<path d="M271.888 380.316C283.113 378.473 290.719 367.877 288.877 356.648C287.035 345.42 276.442 337.811 265.217 339.654C253.992 341.496 246.386 352.093 248.228 363.321C250.07 374.55 260.663 382.159 271.888 380.316Z" fill="#E2D939"/>
<g opacity="0.32">
<path d="M266.486 366.327C267.611 367.77 268.829 368.757 270.143 369.292C271.458 369.828 272.614 369.913 273.607 369.548C274.599 369.183 275.366 368.483 275.901 367.454L272.858 365.615C272.621 366.187 272.298 366.681 271.89 367.095C271.489 367.502 271.014 367.776 270.472 367.916C269.93 368.057 269.303 367.947 268.591 367.588C267.879 367.229 267.173 366.614 266.479 365.743L266.4 351.167C266.4 350.717 266.492 350.351 266.686 350.077C266.881 349.803 267.818 349.122 267.879 349.03L259.961 349.073C260.022 349.164 260.965 349.834 261.166 350.108C261.361 350.382 261.464 350.741 261.464 351.192L261.543 365.81C261.543 366.26 261.446 366.626 261.257 366.9C261.063 367.174 260.125 367.856 260.064 367.947L266.498 369.408L266.479 366.327H266.486Z" fill="#49327C"/>
<path d="M280.49 368.988C280.076 369.402 279.577 369.615 278.975 369.615C278.372 369.615 277.867 369.414 277.453 369.006C277.039 368.598 276.826 368.093 276.826 367.49C276.826 366.887 277.027 366.382 277.441 365.968C277.855 365.554 278.354 365.341 278.956 365.341C279.559 365.341 280.064 365.542 280.478 365.95C280.892 366.364 281.105 366.863 281.105 367.466C281.105 368.068 280.904 368.574 280.496 368.988" fill="#49327C"/>
</g>
<path d="M50.6685 181.084C53.3755 168.166 45.1021 155.5 32.1893 152.792C19.2765 150.084 6.61411 158.36 3.90707 171.277C1.20004 184.194 9.47345 196.861 22.3863 199.569C35.2991 202.277 47.9614 194.001 50.6685 181.084Z" fill="#C92D7B" stroke="#D8327D" stroke-miterlimit="10"/>
<path d="M40.1947 178.257C40.7973 177.405 41.2355 176.418 41.4668 175.335C42.3615 171.067 39.6287 166.878 35.3622 165.983C33.0007 165.49 30.6696 166.105 28.9045 167.481C27.8151 165.636 25.9953 164.229 23.7311 163.761C19.4646 162.866 15.2772 165.599 14.3825 169.867C14.1451 170.994 14.1695 172.108 14.3947 173.161L14.4007 173.179C14.8998 175.462 16.1841 177.179 17.3039 179.152C18.1986 180.723 18.9047 182.44 19.6959 184.071C19.9089 184.51 23.1103 190.629 22.946 190.75C25.9953 188.546 29.0628 186.373 32.1547 184.224C34.8266 182.373 38.2593 180.997 40.1886 178.263L40.1947 178.257Z" fill="white"/>
<path d="M47.5825 179.861C50.2896 166.944 42.0162 154.277 29.1034 151.569C16.1906 148.861 3.52817 157.137 0.821137 170.055C-1.8859 182.972 6.38751 195.638 19.3003 198.346C32.2131 201.054 44.8755 192.778 47.5825 179.861Z" fill="#ED3D86" stroke="#ED3D86" stroke-miterlimit="10"/>
<path d="M37.1088 177.032C37.7114 176.18 38.1496 175.194 38.3809 174.11C39.2755 169.842 36.5428 165.653 32.2762 164.758C29.9147 164.265 27.5836 164.88 25.8186 166.256C24.7291 164.411 22.9093 163.005 20.6452 162.536C16.3787 161.641 12.1912 164.375 11.2966 168.643C11.0592 169.769 11.0835 170.883 11.3087 171.936L11.3148 171.955C11.8139 174.238 13.0981 175.955 14.218 177.927C15.1127 179.498 15.8187 181.215 16.6099 182.847C16.823 183.285 20.0244 189.404 19.8601 189.526C22.9093 187.322 25.9769 185.148 29.0687 182.999C31.7406 181.148 35.1733 179.772 37.1027 177.039L37.1088 177.032Z" fill="white"/>
<path d="M202.883 226.744H43.4814C39.4477 226.744 36.1777 230.015 36.1777 234.05V426.687C36.1777 430.723 39.4477 433.994 43.4814 433.994H202.883C206.917 433.994 210.187 430.723 210.187 426.687V234.05C210.187 230.015 206.917 226.744 202.883 226.744Z" fill="#EDEDED"/>
<path d="M191.653 237.691H54.7099C50.6762 237.691 47.4062 240.962 47.4062 244.997V387.844C47.4062 391.879 50.6762 395.15 54.7099 395.15H191.653C195.687 395.15 198.957 391.879 198.957 387.844V244.997C198.957 240.962 195.687 237.691 191.653 237.691Z" fill="#EF6535" stroke="#EF6535" stroke-miterlimit="10"/>
<path d="M186.814 424.562C193.033 424.562 198.074 419.519 198.074 413.299C198.074 407.078 193.033 402.035 186.814 402.035C180.596 402.035 175.555 407.078 175.555 413.299C175.555 419.519 180.596 424.562 186.814 424.562Z" fill="#CECECE"/>
<path d="M194.386 412.641C194.611 412.118 194.739 411.539 194.739 410.93C194.739 408.538 192.803 406.602 190.411 406.602C189.091 406.602 187.91 407.198 187.113 408.13C186.321 407.259 185.183 406.717 183.917 406.717C181.525 406.717 179.59 408.653 179.59 411.046C179.59 411.673 179.73 412.27 179.967 412.812L179.973 412.818C180.497 413.987 181.379 414.76 182.207 415.698C182.864 416.44 183.436 417.281 184.045 418.066C184.209 418.279 186.613 421.202 186.54 421.281C187.928 419.753 189.334 418.243 190.752 416.745C191.976 415.448 193.668 414.328 194.392 412.641H194.386Z" fill="#EDEDED"/>
<path d="M163.669 407.211H51.7165C50.3618 407.211 49.2637 408.309 49.2637 409.665V409.671C49.2637 411.026 50.3618 412.124 51.7165 412.124H163.669C165.024 412.124 166.122 411.026 166.122 409.671V409.665C166.122 408.309 165.024 407.211 163.669 407.211Z" fill="#DAD9DB"/>
<path opacity="0.57" d="M92.4586 415.691H51.7165C50.3618 415.691 49.2637 416.79 49.2637 418.145V418.151C49.2637 419.506 50.3618 420.605 51.7165 420.605H92.4586C93.8132 420.605 94.9114 419.506 94.9114 418.151V418.145C94.9114 416.79 93.8132 415.691 92.4586 415.691Z" fill="#DAD9DB"/>
<path opacity="0.57" d="M163.668 415.691H101.015C99.6607 415.691 98.5625 416.79 98.5625 418.145V418.151C98.5625 419.506 99.6607 420.605 101.015 420.605H163.668C165.023 420.605 166.121 419.506 166.121 418.151V418.145C166.121 416.79 165.023 415.691 163.668 415.691Z" fill="#DAD9DB"/>
<path d="M251.379 0H91.9775C87.9438 0 84.6738 3.27105 84.6738 7.30609V199.943C84.6738 203.978 87.9438 207.249 91.9775 207.249H251.379C255.413 207.249 258.683 203.978 258.683 199.943V7.30609C258.683 3.27105 255.413 0 251.379 0Z" fill="#E2E2E2"/>
<path d="M240.157 10.9473H103.214C99.1801 10.9473 95.9102 14.2183 95.9102 18.2534V161.1C95.9102 165.135 99.1801 168.406 103.214 168.406H240.157C244.191 168.406 247.46 165.135 247.46 161.1V18.2534C247.46 14.2183 244.191 10.9473 240.157 10.9473Z" fill="#7257AD"/>
<path d="M235.311 197.812C241.529 197.812 246.57 192.769 246.57 186.549C246.57 180.328 241.529 175.285 235.311 175.285C229.092 175.285 224.051 180.328 224.051 186.549C224.051 192.769 229.092 197.812 235.311 197.812Z" fill="#ED3D86" stroke="#ED3D86" stroke-miterlimit="10"/>
<path d="M242.89 185.891C243.115 185.368 243.243 184.789 243.243 184.18C243.243 181.788 241.307 179.852 238.915 179.852C237.595 179.852 236.414 180.448 235.616 181.38C234.825 180.509 233.687 179.967 232.421 179.967C230.029 179.967 228.094 181.903 228.094 184.296C228.094 184.923 228.234 185.52 228.471 186.062L228.477 186.068C229.001 187.237 229.883 188.01 230.711 188.948C231.368 189.69 231.94 190.531 232.549 191.316C232.713 191.529 235.117 194.452 235.044 194.531C236.432 193.003 237.838 191.493 239.256 189.995C240.479 188.698 242.171 187.578 242.896 185.891H242.89Z" fill="white"/>
<path d="M212.165 180.46H100.213C98.8579 180.46 97.7598 181.558 97.7598 182.914V182.92C97.7598 184.275 98.8579 185.373 100.213 185.373H212.165C213.52 185.373 214.618 184.275 214.618 182.92V182.914C214.618 181.558 213.52 180.46 212.165 180.46Z" fill="#DAD9DB"/>
<path opacity="0.57" d="M140.955 188.941H100.213C98.8579 188.941 97.7598 190.04 97.7598 191.395V191.401C97.7598 192.756 98.8579 193.855 100.213 193.855H140.955C142.309 193.855 143.407 192.756 143.407 191.401V191.395C143.407 190.04 142.309 188.941 140.955 188.941Z" fill="#DAD9DB"/>
<path opacity="0.57" d="M212.164 188.941H149.511C148.157 188.941 147.059 190.04 147.059 191.395V191.401C147.059 192.756 148.157 193.855 149.511 193.855H212.164C213.519 193.855 214.617 192.756 214.617 191.401V191.395C214.617 190.04 213.519 188.941 212.164 188.941Z" fill="#DAD9DB"/>
<path d="M388.93 90.7168H229.528C225.495 90.7168 222.225 93.9878 222.225 98.0229V290.66C222.225 294.695 225.495 297.966 229.528 297.966H388.93C392.964 297.966 396.234 294.695 396.234 290.66V98.0229C396.234 93.9878 392.964 90.7168 388.93 90.7168Z" fill="#EDEDED"/>
<path d="M377.708 101.664H240.765C236.731 101.664 233.461 104.935 233.461 108.97V251.816C233.461 255.851 236.731 259.122 240.765 259.122H377.708C381.741 259.122 385.011 255.851 385.011 251.816V108.97C385.011 104.935 381.741 101.664 377.708 101.664Z" fill="#ED3D86" stroke="#ED3D86" stroke-miterlimit="10"/>
<path d="M372.861 288.529C379.08 288.529 384.121 283.486 384.121 277.266C384.121 271.045 379.08 266.002 372.861 266.002C366.643 266.002 361.602 271.045 361.602 277.266C361.602 283.486 366.643 288.529 372.861 288.529Z" fill="#CECECE"/>
<path d="M380.44 276.608C380.666 276.084 380.793 275.506 380.793 274.897C380.793 272.504 378.858 270.568 376.466 270.568C375.145 270.568 373.965 271.165 373.167 272.097C372.376 271.226 371.238 270.684 369.972 270.684C367.58 270.684 365.645 272.62 365.645 275.013C365.645 275.64 365.785 276.237 366.022 276.779L366.028 276.785C366.551 277.954 367.434 278.727 368.262 279.664C368.919 280.407 369.491 281.247 370.1 282.033C370.264 282.246 372.668 285.168 372.595 285.248C373.983 283.719 375.389 282.209 376.807 280.712C378.03 279.415 379.722 278.295 380.447 276.608H380.44Z" fill="#EDEDED"/>
<path d="M349.716 271.177H237.763C236.409 271.177 235.311 272.275 235.311 273.63V273.636C235.311 274.992 236.409 276.09 237.763 276.09H349.716C351.07 276.09 352.169 274.992 352.169 273.636V273.63C352.169 272.275 351.07 271.177 349.716 271.177Z" fill="#DAD9DB"/>
<path opacity="0.57" d="M278.505 279.658H237.763C236.409 279.658 235.311 280.757 235.311 282.112V282.118C235.311 283.473 236.409 284.572 237.763 284.572H278.505C279.86 284.572 280.958 283.473 280.958 282.118V282.112C280.958 280.757 279.86 279.658 278.505 279.658Z" fill="#DAD9DB"/>
<path opacity="0.57" d="M349.715 279.658H287.062C285.708 279.658 284.609 280.757 284.609 282.112V282.118C284.609 283.473 285.708 284.572 287.062 284.572H349.715C351.07 284.572 352.168 283.473 352.168 282.118V282.112C352.168 280.757 351.07 279.658 349.715 279.658Z" fill="#DAD9DB"/>
<path d="M87.8858 104.411C93.3027 102.767 98.2874 100.636 102.663 98.1945C108.604 94.8824 113.418 90.998 116.668 86.9675C117.453 85.9994 118.147 85.0131 118.744 84.0329C120.557 81.0435 120.983 77.4087 119.967 74.0601L116.504 62.6504L40.8809 85.6037L44.344 97.0134C45.3604 100.362 47.7341 103.144 50.899 104.624C51.9398 105.111 53.0597 105.537 54.2526 105.909C56.4924 106.609 58.9756 107.102 61.6658 107.388C63.0535 107.534 64.4959 107.625 65.9749 107.65C68.1843 107.699 70.4849 107.613 72.8647 107.394C77.6546 106.956 82.7246 105.976 87.8797 104.411H87.8858Z" fill="#EFE241"/>
<g style="mix-blend-mode:screen" opacity="0.3">
<path d="M61.6793 107.382L53.8765 81.6582L47.498 83.5943L54.2661 105.908C56.5059 106.609 58.9891 107.102 61.6793 107.388V107.382Z" fill="#FCEE21"/>
<path d="M72.8729 107.394L64.1207 78.5469L57.7422 80.483L65.9831 107.649C68.1925 107.698 70.4931 107.613 72.8729 107.394Z" fill="#FCEE21"/>
<path d="M102.671 98.1944C108.611 94.8823 113.425 90.9979 116.675 86.9673L109.907 64.6533L93.9609 69.4936L102.664 98.1944H102.671Z" fill="#FCEE21"/>
</g>
<path d="M84.756 94.0791C105.638 87.7405 119.856 73.6681 116.513 62.6477C113.17 51.6272 93.5321 47.8318 72.6501 54.1704C51.7681 60.509 37.5498 74.5813 40.8928 85.6018C44.2357 96.6223 63.874 100.418 84.756 94.0791Z" fill="#E2D939"/>
<path d="M82.3129 86.0318C98.859 81.0093 110.343 70.5785 107.964 62.7338C105.584 54.8892 90.2417 52.6013 73.6956 57.6238C57.1496 62.6463 45.6654 73.0771 48.045 80.9218C50.4246 88.7664 65.7669 91.0543 82.3129 86.0318Z" fill="#D3C739"/>
<path d="M74.3924 59.9221C58.6653 64.6954 47.5151 74.3577 48.5011 82.0352C48.3245 81.676 48.1663 81.3046 48.0446 80.9211C45.6648 73.0792 57.1498 62.6437 73.6986 57.6268C90.2474 52.6039 105.585 54.8931 107.965 62.735C108.08 63.1246 108.153 63.5143 108.208 63.9161C104.757 56.9875 90.1257 55.1488 74.3924 59.9221Z" fill="#B5A724"/>
<path d="M80.7409 80.8461C91.6258 77.542 99.2249 70.8257 97.714 65.8448C96.2031 60.8639 86.1543 59.5045 75.2694 62.8085C64.3845 66.1126 56.7854 72.8289 58.2963 77.8098C59.8072 82.7907 69.856 84.1501 80.7409 80.8461Z" fill="#E2D939"/>
<g opacity="0.32">
<path d="M77.2543 76.7139C78.2951 77.3349 79.4515 77.5967 80.7175 77.5115C81.9834 77.4263 83.1094 77.0731 84.0954 76.4643C85.0814 75.8555 85.8604 75.0944 86.4265 74.1751L83.5233 73.9559C83.2676 74.4429 82.9329 74.9057 82.519 75.3379C82.1052 75.7702 81.6304 76.1294 81.0948 76.4217C80.5592 76.7078 79.9506 76.854 79.2689 76.854C78.5872 76.854 77.9238 76.6713 77.2726 76.2999L77.7899 66.0653C77.8082 65.7487 77.9117 65.4565 78.1186 65.2007C78.3255 64.945 79.2689 64.1292 79.3298 64.0439L71.5757 66.8751C71.6305 66.9177 72.5313 67.0577 72.7139 67.1795C72.8965 67.3012 72.9817 67.5204 72.9634 67.837L72.4461 78.1021C72.4278 78.4187 72.3183 78.7109 72.1174 78.9666C71.9166 79.2284 70.9671 80.0382 70.9062 80.1234L77.1448 78.8753L77.2543 76.7139Z" fill="#49327C"/>
<path d="M90.8514 73.6449C90.4315 74.0833 89.9324 74.406 89.342 74.6252C88.7516 74.8443 88.2647 74.8748 87.8813 74.7348C87.4918 74.5947 87.3092 74.3086 87.3274 73.8885C87.3457 73.4684 87.5709 73.0361 87.9908 72.5977C88.4108 72.1594 88.9099 71.8367 89.5003 71.6175C90.0906 71.3983 90.5714 71.3679 90.961 71.5079C91.3505 71.6479 91.5331 71.9341 91.5148 72.3542C91.4966 72.7743 91.2714 73.2066 90.8514 73.6388" fill="#49327C"/>
</g>
<path d="M158.934 168.381C162.123 164.6 165.306 160.807 168.288 156.862C168.97 155.961 169.658 155.06 170.364 154.128C170.766 154.761 170.565 155.504 170.9 156.095C171.271 155.504 170.936 154.908 170.875 154.329C170.839 153.958 170.875 153.672 171.1 153.367C172.129 151.949 173.091 150.487 173.912 148.941C175.489 145.976 176.17 142.719 176.937 139.498C177.448 137.343 177.808 135.157 178.203 132.977C178.544 131.096 178.848 129.215 179.165 127.333C179.341 126.268 179.451 125.196 179.603 124.131C179.81 122.724 180.035 121.318 180.218 119.911C180.565 117.251 180.899 114.59 181.252 111.936C181.514 109.981 181.697 108.021 181.928 106.06C182.129 104.349 182.275 102.626 182.445 100.903C182.512 100.222 182.585 100.191 183.291 100.155C183.663 100.136 184.052 100.319 184.399 100.045C184.369 99.6736 184.076 99.6127 183.797 99.5822C183.358 99.5335 182.914 99.5335 182.476 99.6127C182.22 99.6979 181.958 99.6918 181.691 99.6918C180.674 99.6918 179.658 99.6857 178.641 99.6918C177.99 99.6979 177.875 99.8075 177.747 100.441C177.668 100.824 177.68 101.208 177.68 101.598C177.661 103.814 177.26 105.969 176.682 108.094C176.389 109.171 176.316 109.196 175.196 109.196C168.441 109.196 161.685 109.196 154.929 109.196C154.667 109.196 154.399 109.196 154.138 109.208C153.748 109.232 153.59 109.415 153.553 109.823C153.493 110.572 153.553 111.327 153.462 112.07C153.395 113.841 153.237 115.601 153.115 117.366C152.762 122.42 152.397 127.473 151.965 132.527C151.819 134.237 151.441 135.76 150.182 137.038C148.873 138.371 147.717 139.857 146.451 141.233C141.746 146.353 137.035 151.468 132.312 156.57C128.952 160.198 125.556 163.791 122.178 167.401C121.71 167.9 121.649 167.973 121.971 168.369H158.934V168.381Z" fill="#49327C"/>
<path d="M176.683 108.763C177.036 107.686 177.279 106.571 177.486 105.457C177.663 104.489 178.004 103.6 178.028 102.614C178.113 98.8026 178.229 95.0217 177.858 91.2225C177.73 89.9318 177.608 88.6349 177.48 87.3442C177.298 85.5298 177.072 83.7155 176.756 81.9072C176.494 80.4095 176.354 78.8813 176.056 77.3896C175.545 74.8203 175.088 72.2388 174.553 69.6695C173.804 66.1078 172.982 62.5644 172.112 59.027C171.321 55.8062 170.542 52.5855 169.611 49.4073C169.556 49.2308 169.55 49.109 169.586 49.0237C169.519 48.7863 169.489 48.5367 169.501 48.287C169.416 48.2505 169.331 48.1957 169.264 48.1105C169.258 48.0983 169.245 48.0922 169.233 48.08C168.278 47.7939 166.927 47.9157 166.105 47.8365C165.977 47.8243 165.849 47.8 165.728 47.7695C165.6 47.8974 165.405 47.9644 165.082 47.9339C164.985 47.9217 164.869 48.0435 164.772 48.1044C162.636 49.4621 160.548 50.8929 158.503 52.3906C155.63 54.4911 152.928 56.7865 150.366 59.2584C148.716 60.8535 147.103 62.4913 145.6 64.2326C143.932 66.1748 142.338 68.1657 140.828 70.2358C139.301 72.3363 137.858 74.4916 136.55 76.7382C135.338 78.8204 134.145 80.9209 133.141 83.1006C131.626 86.3822 130.159 89.6943 129.015 93.1343C128.278 95.3383 127.56 97.5544 126.957 99.795C126.434 101.743 125.965 103.704 125.515 105.67C125.223 106.931 125.01 108.209 124.742 109.476C124.462 110.821 124.517 112.294 123.281 113.269C123.634 113.482 123.793 113.159 123.981 112.982C124.182 112.8 124.365 112.648 124.669 112.708C126.239 113.013 127.797 113.342 129.368 113.628C129.69 113.689 129.867 113.847 129.982 114.127C130.268 113.798 130.634 113.701 131.054 113.774C131.419 113.835 131.674 113.677 131.887 113.39C132.07 113.147 132.277 112.928 132.466 112.684C135.527 108.769 138.375 104.702 141.023 100.495C143.202 97.0308 145.216 93.4752 147.28 89.9378C147.858 88.9454 148.369 87.9104 149.045 86.9606C149.179 87.1128 149.16 87.2285 149.124 87.3503C148.552 89.4934 147.98 91.6365 147.517 93.8162C147 96.2698 146.482 98.7234 146.081 101.201C145.679 103.661 145.46 106.139 145.162 108.611C145.076 109.323 145.125 109.378 145.837 109.378C151.985 109.378 158.138 109.378 164.285 109.378C168.113 109.378 171.942 109.372 175.764 109.39C176.263 109.39 176.519 109.256 176.683 108.763Z" fill="#EF6535" stroke="#EF6535" stroke-miterlimit="10"/>
<path d="M170.9 155.674C170.918 155.894 170.924 156.119 170.967 156.338C171.442 158.938 171.922 161.531 172.391 164.131C172.647 165.544 172.896 166.962 173.146 168.375H200.54C199.98 166.006 199.427 163.638 198.873 161.276C198.179 158.329 197.491 155.382 196.797 152.435C196.11 149.507 195.416 146.584 194.728 143.656C194.046 140.77 193.365 137.884 192.689 134.992C191.928 131.747 191.18 128.502 190.413 125.257C189.64 121.975 188.861 118.693 188.088 115.412C187.394 112.483 186.7 109.561 186.018 106.632C185.623 104.934 185.239 103.229 184.85 101.524C184.685 100.909 184.704 100.246 184.351 99.6855C183.967 99.4663 183.553 99.5759 183.152 99.5637C182.379 99.5454 182.348 99.6124 182.281 100.373C182.178 101.603 182.032 102.827 181.922 104.057C181.813 105.287 181.606 106.498 181.539 107.734C181.496 108.562 181.35 109.378 181.241 110.2C181.07 111.503 180.857 112.8 180.723 114.103C180.535 115.972 180.273 117.835 180.029 119.698C179.786 121.555 179.488 123.412 179.238 125.269C178.946 127.43 178.538 129.567 178.179 131.717C177.948 133.086 177.656 134.45 177.406 135.814C177.187 137.007 177.09 138.231 176.743 139.382C176.274 140.922 175.976 142.499 175.483 144.033C175.075 145.306 174.698 146.591 174.101 147.784C173.182 149.635 172.075 151.388 170.802 153.026C170.626 153.251 170.589 153.458 170.669 153.751C170.827 154.372 170.955 155.011 170.912 155.668L170.9 155.674Z" fill="#260E4F"/>
<path d="M216.835 82.6508C216.689 82.9065 216.324 83.077 216.573 83.4849C216.689 83.6737 216.464 83.8076 216.342 83.9355C213.767 86.6266 210.815 88.8123 207.644 90.7484C204.899 92.4227 202.027 93.8231 199.026 94.9555C196.762 95.8079 194.437 96.4289 192.045 96.8064C191.248 97.0134 190.42 96.9342 189.611 97.0377C189.446 97.0377 189.282 97.0377 189.118 97.0438C188.752 97.1108 188.661 96.8794 188.606 96.5933C187.931 93.2751 186.933 90.0543 185.715 86.9005C184.255 83.1257 182.733 79.3753 181.26 75.6005C179.763 71.7708 178.393 67.8986 177.432 63.8925C176.683 60.763 176.117 57.6092 175.782 54.4067C175.721 53.8405 175.746 53.2682 175.685 52.702C175.654 52.4158 175.703 52.0505 176.178 52.3062C177.754 54.3519 179.02 56.5803 180.158 58.9C182.283 63.241 184.066 67.7342 185.989 72.1605C186.762 73.9444 187.626 75.6979 188.625 77.3661C189.945 79.5701 191.777 81.0496 194.449 81.4271C196.634 81.7315 198.764 81.6097 200.919 81.214C205.106 80.4529 209.117 79.1013 213.11 77.6705C213.42 77.5609 213.743 77.2809 214.09 77.7253C214.23 77.9019 214.51 77.5305 214.759 77.6279C214.364 78.0845 214.54 78.529 214.759 78.9917C215.228 79.9598 215.66 80.9461 216.056 81.9385C216.208 82.3281 216.421 82.5778 216.841 82.6447L216.835 82.6508Z" fill="#EF6535" stroke="#EF6535" stroke-miterlimit="10"/>
<path d="M184.339 100.1C184.296 99.716 183.986 99.789 183.755 99.7707C183.341 99.7403 182.927 99.7464 182.507 99.7342C181.223 99.7342 179.945 99.716 178.66 99.7403C178.149 99.7525 177.997 99.5698 177.991 99.0706C177.973 97.0005 178.04 94.9183 177.833 92.8604C177.705 91.5818 177.638 90.285 177.461 89.0004C177.279 87.7035 177.151 86.3945 177.023 85.0855C176.926 84.1418 176.786 83.2042 176.615 82.2727C176.439 81.2803 176.329 80.2757 176.165 79.2833C175.989 78.1691 175.788 77.061 175.587 75.9529C175.416 74.997 175.252 74.0472 175.063 73.0974C174.857 72.0746 174.625 71.0578 174.4 70.035C174.26 69.3835 174.138 68.726 174.011 68.0745C173.767 66.8081 173.451 65.56 173.171 64.2997C172.745 62.4184 172.252 60.5492 171.795 58.674C171.205 56.2691 170.639 53.8581 170.036 51.4531C169.847 50.7104 169.58 49.9919 169.354 49.2613C169.16 48.6342 168.557 48.1776 169.178 48.3176C169.464 48.3846 170.407 48.756 170.693 48.7438C170.986 48.5003 171.314 48.6464 171.625 48.6768C171.905 48.7073 172.185 48.7499 172.465 48.7986C173.164 48.9082 173.152 48.8777 173.116 48.1593C173.085 47.5931 172.763 47.0147 173.104 46.4424C173.341 46.6007 172.099 46.8381 172.069 47.0756C171.99 47.7027 173.584 48.275 173.609 48.8838C173.621 49.1213 173.81 49.17 173.986 49.2187C174.382 49.3222 174.777 49.3953 175.185 49.3709C175.55 49.3466 175.684 49.5292 175.696 49.8823C175.709 50.3694 175.769 50.8504 175.812 51.3314C175.842 51.6845 176.08 51.9585 176.177 52.2812C175.739 52.1411 175.806 52.4699 175.824 52.6952C175.97 54.8139 176.183 56.9327 176.579 59.0149C176.877 60.5979 177.194 62.1809 177.583 63.7456C178.101 65.8035 178.679 67.831 179.354 69.8401C180.322 72.7078 181.393 75.5328 182.556 78.3274C183.268 80.0382 183.925 81.7673 184.589 83.4964C185.374 85.5482 186.159 87.6 186.901 89.664C187.467 91.2348 187.918 92.8421 188.283 94.4738C188.441 95.1984 188.74 95.8924 188.764 96.6474C188.77 96.8788 188.965 96.9275 189.117 97.0188C188.843 97.2928 188.892 97.6459 188.879 97.9869C188.831 99.3141 188.405 99.8743 187.072 99.8256C186.366 99.8012 185.654 99.8316 184.948 99.8195C184.564 99.8134 184.443 99.9047 184.576 100.319" fill="#C8D0D7"/>
<path d="M167.144 42.0772C167.09 41.8824 167.157 41.6815 166.877 41.5293C165.531 40.7926 164.874 39.5018 164.332 38.1563C163.529 36.1532 163.273 34.0588 163.529 31.9096C163.572 31.5565 163.346 31.5504 163.115 31.5443C162.525 31.5443 161.959 31.4469 161.374 31.3434C158.703 30.8685 156.481 28.3661 156.177 26.0099C155.769 22.844 156.621 20.3355 159.853 18.643C161.046 18.0159 162.379 17.7906 163.827 18.0402C166.012 18.4116 167.619 19.4649 168.733 21.3279C169.226 22.1499 169.542 23.0388 169.573 24.0129C169.585 24.5609 169.737 24.634 170.248 24.4878C172.08 23.9764 173.925 23.7998 175.83 24.1347C177.108 24.36 178.307 24.6948 179.402 25.395C180.607 26.1621 181.429 27.1363 181.307 28.6706C181.283 28.9445 181.319 29.182 181.532 29.4438C181.867 29.8639 182.086 30.3814 182.013 30.9598C181.551 30.8198 181.721 30.2779 181.429 30.0283C181.283 29.9978 181.259 30.1196 181.228 30.2048C180.893 31.179 180.139 31.8122 179.402 32.4454C177.99 33.6509 176.268 34.3145 174.649 35.1547C174.271 35.3496 174.01 35.1913 173.736 34.9173C172.64 33.8092 171.192 33.7239 169.999 34.6616C169.22 35.2765 168.885 36.3115 169.238 37.3587C169.445 37.9554 169.317 38.3694 168.873 38.7651C168.094 39.4592 167.759 40.3908 167.51 41.371C167.443 41.6267 167.503 41.9616 167.144 42.0712V42.0772Z" fill="#2B211E"/>
<path d="M167.145 42.0775C167.315 41.4747 167.455 40.8659 167.668 40.2814C167.93 39.5447 168.411 38.9298 168.983 38.4001C169.226 38.1748 169.299 37.9739 169.159 37.6208C168.624 36.3057 169.025 35.1002 170.182 34.3209C171.283 33.5842 172.799 33.6877 173.694 34.6862C174.15 35.1976 174.46 35.1063 174.966 34.8384C176.378 34.0895 177.857 33.4685 179.135 32.4761C180.017 31.7942 180.796 31.0453 181.162 29.9555C181.204 29.8215 181.241 29.6511 181.423 29.6693C181.563 29.6815 181.545 29.8581 181.606 29.9555C181.788 30.2721 181.77 30.6739 182.014 30.9662C182.354 32.4091 182.568 33.8703 182.732 35.3498C182.921 37.1215 182.914 38.8811 182.756 40.6467C182.616 42.2054 182.421 43.7579 181.77 45.2069C181.606 45.5783 181.411 45.9436 181.18 46.2663C180.529 47.1613 179.64 47.344 178.587 47.1309C176.773 46.7717 175.087 46.0898 173.481 45.213C173.322 45.1278 173.146 44.9512 172.981 45.0547C172.805 45.1643 172.933 45.3896 172.957 45.5601C173 45.8584 173.675 48.86 173.724 49.1583C173.657 48.4521 173.681 49.8767 173.724 49.1583C173.761 49.5662 173.377 49.1705 172.86 49.0609C172.148 48.9087 171.417 48.8539 170.699 48.7565C170.383 48.6834 170.072 48.5921 169.75 48.5495C169.439 48.5129 169.165 48.4886 169.038 48.1172C168.952 47.8676 168.672 47.9041 168.447 47.9041C167.759 47.9041 167.066 47.898 166.378 47.898C166.061 47.898 164.954 47.8493 165.051 47.5023C165.167 47.1004 165.392 47.0943 165.465 46.6742C165.757 45.2922 166.859 43.4474 167.145 42.0653V42.0775Z" fill="#DB9D82"/>
<path d="M123.28 113.281C123.451 113.323 123.56 113.195 123.633 113.092C124.029 112.495 124.534 112.495 125.192 112.648C126.731 113.007 128.289 113.269 129.842 113.549C130.377 113.646 129.951 113.938 129.988 114.139C129.762 114.237 129.915 114.523 129.738 114.645C129.531 115.046 129.349 115.454 129.129 115.85C128.576 117.75 129.044 119.6 129.422 121.451C129.562 122.127 129.75 122.791 129.927 123.461C129.988 123.686 129.933 123.795 129.689 123.838C129.087 123.954 128.563 123.85 128.125 123.387C127.644 122.882 127.34 122.255 126.938 121.695C126.19 120.666 125.295 120.282 124.084 120.623C122.361 121.11 120.657 121.658 118.941 122.145C116.896 122.724 115.046 122.377 113.421 120.94C112.587 120.203 112.611 119.272 113.542 118.663C113.877 118.444 114.254 118.279 114.626 118.109C117.383 116.855 120.03 115.381 122.599 113.78C122.836 113.634 123.049 113.445 123.274 113.275L123.28 113.281Z" fill="#DB9D82"/>
<path d="M216.834 82.6505C216.438 82.8453 216.237 82.7723 216.054 82.3156C215.568 81.0979 215.02 79.8985 214.454 78.7113C214.216 78.2181 214.186 77.865 214.752 77.6336C215.105 77.4814 215.446 77.2805 215.817 77.1831C218.179 76.5316 219.767 74.7721 221.514 73.2439C223.109 71.8436 224.849 70.6624 226.663 69.5787C226.748 69.53 226.833 69.463 226.931 69.4387C227.32 69.3534 227.777 69.1647 228.075 69.53C228.349 69.8709 228.13 70.2789 227.929 70.6137C227.223 71.7766 226.505 72.9334 225.793 74.0902C225.513 74.5407 225.306 75.0339 225.16 75.5392C224.953 76.2577 225.245 76.6778 225.987 76.7874C226.486 76.8604 227.004 76.8117 227.491 77.0065C227.813 77.1344 228.087 77.317 228.154 77.658C228.221 78.0111 227.935 78.1938 227.673 78.3643C226.748 78.9609 225.659 79.0888 224.63 79.3993C223.249 79.8194 221.824 80.0568 220.406 80.3186C219.877 80.416 219.402 80.5987 218.982 80.9518C218.282 81.5363 217.552 82.0904 216.834 82.6505Z" fill="#DB9D82"/>
<path d="M129.129 115.85C129.19 115.375 129.451 115.004 129.738 114.645C129.646 115.107 129.47 115.521 129.129 115.85Z" fill="#B4E2BC"/>
<path d="M169.414 41.4197C169.451 42.2599 169.84 43.1184 170.552 43.575C171.41 44.123 172.615 43.9525 173.382 43.2828C174.149 42.613 174.472 41.5232 174.338 40.5125C174.204 39.5019 173.638 38.5886 172.889 37.8945C173.163 38.7043 173.437 39.5506 173.346 40.3969C173.255 41.2432 172.67 42.1077 171.824 42.2356C170.984 42.3634 170.698 41.4623 170.68 40.7865C170.656 39.855 170.869 38.9174 171.283 38.0894C169.913 38.6799 169.353 40.0194 169.42 41.4197H169.414Z" fill="#DD3682"/>
<path d="M142.751 395.065C143.007 394.31 142.94 393.494 143.147 392.733C142.526 392.593 141.917 392.788 141.309 392.855C139.611 393.043 137.955 392.83 136.294 392.55C134.407 392.234 132.623 391.606 130.931 390.711C128.278 389.305 126.05 387.399 124.224 385.007C123.062 383.478 122.228 381.786 121.449 380.057C121.309 379.746 121.199 379.357 120.773 379.338C120.14 379.308 119.489 379.174 118.911 379.57C118.734 379.685 118.698 379.892 118.704 380.087C118.704 380.379 118.631 380.66 118.576 380.946C118.783 382.127 118.643 383.314 118.661 384.501C118.667 384.568 118.686 384.629 118.71 384.696C118.893 385.536 118.814 386.383 118.753 387.223C118.74 387.357 118.71 387.491 118.722 387.625C118.722 387.692 118.74 387.759 118.759 387.826C118.82 388.788 118.887 389.75 118.698 390.705C118.625 392.173 118.674 393.64 118.667 395.107C118.667 395.302 118.71 395.491 118.85 395.643H138.74C139.404 395.527 140.079 395.601 140.749 395.527C141.437 395.454 142.143 395.473 142.751 395.065Z" fill="#50A49F"/>
<path d="M118.808 384.586C118.808 384.586 118.759 384.599 118.741 384.586C118.54 384.422 118.333 384.544 118.132 384.586C115.515 385.153 113.111 386.255 110.774 387.515C108.181 388.915 105.813 390.657 103.513 392.495C103.269 392.69 103.044 392.897 102.825 393.116C102.673 393.731 102.873 394.316 102.965 394.912C103.001 395.156 103.086 395.387 103.026 395.637H104.072C104.772 395.18 105.418 394.657 106.069 394.145C108.887 391.917 111.857 389.938 115.186 388.544C116.172 388.13 117.195 387.838 118.193 387.485C118.905 387.235 118.929 387.235 118.899 386.462C118.874 385.835 119.033 385.201 118.808 384.586Z" fill="#E2D939"/>
<path d="M104.887 395.643H109.074C109.701 395.46 110.151 394.991 110.681 394.657C111.283 394.279 111.862 393.865 112.464 393.488C114.199 392.379 116.031 391.484 117.991 390.863C118.91 390.571 118.922 390.571 118.904 389.628C118.891 388.994 118.989 388.361 118.843 387.734C118.405 387.606 118.021 387.825 117.632 387.953C113.201 389.372 109.378 391.856 105.781 394.73C105.453 394.991 104.99 395.15 104.887 395.649V395.643Z" fill="#E2D939"/>
<path d="M112.324 393.427C111.198 394.103 110.115 394.84 109.074 395.644H118.849C118.849 393.975 118.849 392.307 118.849 390.639C118.733 390.535 118.581 390.554 118.465 390.596C116.859 391.205 115.228 391.759 113.736 392.642C113.274 392.916 112.823 393.202 112.33 393.421L112.324 393.427Z" fill="#449092"/>
<path d="M104.888 395.643C107.742 393.239 110.798 391.132 114.157 389.482C115.661 388.745 117.237 388.203 118.844 387.735C119.014 386.864 118.959 385.981 118.959 385.098C118.959 384.922 119.033 384.703 118.807 384.587C118.935 385.336 118.844 386.091 118.868 386.846C118.874 387.089 118.722 387.175 118.515 387.229C113.53 388.611 109.282 391.321 105.32 394.548C104.894 394.895 104.364 395.132 104.072 395.637H104.888V395.643Z" fill="#4E9488"/>
<path d="M142.751 395.064C141.43 395.363 140.073 395.43 138.74 395.643H142.696C142.715 395.448 142.733 395.259 142.751 395.064Z" fill="#EDD24A"/>
<path d="M122.24 290.205C121.607 289.888 121.54 290.607 121.175 290.783C121.004 290.881 120.864 291.002 120.737 291.154C118.582 293.645 116.257 295.983 113.883 298.254C112.325 299.739 110.755 301.2 109.41 302.881C107.645 305.079 106.3 307.502 105.673 310.278C105.643 310.412 105.612 310.54 105.673 310.674C105.77 311.246 105.521 311.776 105.478 312.336C105.375 313.688 105.667 314.984 106.008 316.275C106.355 317.596 106.592 318.942 106.854 320.281C107.067 321.377 107.237 322.479 107.42 323.581C107.767 325.651 108.047 327.734 108.302 329.822C108.46 331.155 108.479 332.483 108.521 333.81C108.868 333.986 109.246 333.907 109.605 333.907C110.512 333.907 111.418 333.926 112.325 333.901C112.873 333.919 113.421 333.919 113.969 333.901C114.742 333.907 115.521 333.956 116.294 333.865C117.079 333.694 117.876 333.834 118.667 333.779C122.07 333.56 125.478 333.792 128.88 333.597C130.25 333.518 131.625 333.499 132.995 333.493C133.676 333.42 134.364 333.451 135.046 333.432C137.085 333.451 139.117 333.493 141.15 333.335C141.248 333.329 141.339 333.305 141.424 333.256C141.948 333.043 142.495 333.158 143.031 333.14C143.53 333.122 143.719 332.939 143.755 332.41C143.895 330.285 143.871 328.154 143.999 326.029C144.041 325.286 144.066 324.537 144.127 323.801C144.857 324.489 145.539 325.134 146.22 325.779C146.811 326.333 147.413 326.881 148.004 327.441C148.32 327.746 148.746 327.734 149.123 327.831C149.44 327.91 149.361 327.569 149.294 327.429C149.16 327.173 148.983 326.942 148.783 326.729C148.101 326.011 147.34 325.383 146.61 324.726C145.642 323.855 144.784 322.893 144.279 321.663C144.175 321.408 144.169 321.152 144.242 320.823C144.705 321.213 144.966 321.682 145.295 322.102C145.94 322.936 146.652 323.654 147.718 323.977C148.789 324.3 150.517 323.928 151.266 323.094C152.088 322.175 152.203 321.116 151.704 320.014C151.187 318.881 150.182 318.309 149.063 317.925C147.742 317.469 146.385 317.353 145.003 317.456C144.48 317.499 144.309 317.322 144.352 316.811C144.467 315.502 144.394 314.181 144.595 312.872C144.553 312.683 144.486 312.494 144.37 312.342C142.161 309.493 140.609 306.26 138.892 303.118C136.835 299.343 134.9 295.508 133.037 291.629C132.678 290.881 132.349 290.113 132.033 289.346C131.796 288.768 131.455 288.646 130.937 288.993C129.793 289.76 128.533 290.253 127.2 290.521C125.77 290.814 124.322 290.868 122.91 290.369C122.69 290.29 122.465 290.278 122.246 290.205H122.24Z" fill="#E2D939"/>
<path d="M122.24 290.204C123.354 290.929 124.614 290.929 125.862 290.856C127.785 290.74 129.55 290.137 131.138 289.041C131.498 288.792 131.717 288.95 131.857 289.291C133.257 292.761 135.022 296.055 136.726 299.38C138.619 303.075 140.572 306.74 142.727 310.296C143.281 311.209 143.895 312.074 144.589 312.878C144.364 311.088 144.997 309.425 145.381 307.727C145.466 307.343 145.764 307.221 146.099 307.349C148.436 308.25 150.822 309.017 153.195 309.809C154.912 310.387 156.671 310.844 158.399 311.392C159.203 311.648 160.018 311.873 160.657 312.512C161.357 313.218 161.515 314.034 161.382 314.96C161.126 316.671 160.377 318.193 159.574 319.697C158.649 321.426 157.687 323.13 156.859 324.914C156.774 325.097 156.689 325.316 156.439 325.353C156.22 325.651 155.989 325.919 155.66 326.114C154.504 326.796 154.206 327.758 154.869 329.286C155.32 330.315 156.05 331.155 156.89 331.879C157.797 332.665 158.771 333.371 159.903 333.822C161.126 334.303 162.222 334.047 163.207 333.243C163.968 332.622 164.078 332.007 163.646 331.137C163.591 331.033 163.536 330.93 163.481 330.826C163.384 330.625 163.317 330.418 163.481 330.229C163.652 330.029 163.834 330.175 164.011 330.236C164.084 330.266 164.157 330.278 164.224 330.217C164.948 328.902 165.666 327.593 166.391 326.278C167.985 323.392 169.61 320.525 171.175 317.626C171.929 316.226 172.483 314.741 172.982 313.225C173.311 312.226 173.341 311.191 173.621 310.199C173.67 310.016 173.646 309.815 173.64 309.62C173.542 306.868 172.203 304.871 169.823 303.599C165.885 301.486 161.643 300.068 157.529 298.369C154.814 297.249 152.076 296.177 149.349 295.093C149.087 294.99 149.111 294.831 149.209 294.637C148.552 294.71 147.986 294.454 147.444 294.131C145.466 293.34 143.561 292.323 141.467 291.903C139.738 291.556 138.046 291.111 136.367 290.588C135.697 290.381 135.569 290.265 135.667 289.602C136.02 287.209 135.843 284.804 135.874 282.405C135.88 281.894 136.032 281.559 136.446 281.236C138.613 279.519 138.448 276.505 136.135 274.989C134.662 274.344 132.703 274.697 131.875 276.055C131.662 276.402 131.321 276.585 130.889 276.56C130.286 276.524 130.079 276.201 130.378 275.677C130.554 275.361 130.913 274.74 130.913 274.368C130.913 272.298 131.327 269.711 129.921 267.988C129.459 267.421 129.288 266.66 128.893 266.039C128.552 265.504 128.394 265.516 127.882 265.881C125.752 267.415 123.573 268.852 120.944 269.412C120.372 269.534 119.988 269.492 119.538 269.071C119.252 268.804 118.935 268.487 118.54 268.493C117.858 268.493 116.994 269.784 116.653 268.871C116.531 268.542 116.945 268.176 116.434 267.951C115.996 267.756 115.308 268.341 114.809 268.298C114.237 268.298 113.665 268.335 113.092 268.298C112.867 268.28 112.63 268.274 112.447 268.463C113.159 268.822 113.914 268.737 114.651 268.627C114.979 268.578 115.144 268.615 115.119 268.974C115.052 269.918 114.961 270.855 114.931 271.799C114.894 272.883 114.857 273.973 114.9 275.05C114.937 275.976 114.791 276.883 114.864 277.814C114.973 279.306 115.539 280.585 116.458 281.693C117.383 282.807 118.448 283.799 119.848 284.341C120.366 284.542 120.859 284.859 121.394 284.938C121.972 285.023 122.045 285.401 122.076 285.778C122.179 286.892 122.478 287.97 122.648 289.072C122.709 289.486 122.904 290.04 122.234 290.229L122.24 290.204Z" fill="#9E6244"/>
<path d="M133.049 333.377C132.495 333.152 131.941 333.341 131.388 333.365C127.912 333.499 124.431 333.475 120.956 333.517C119.507 333.536 118.058 333.59 116.61 333.633C116.5 333.633 116.391 333.688 116.281 333.718C116.689 334.047 117.176 333.895 117.626 333.913C118.363 333.944 118.411 333.968 118.411 334.717C118.411 336.562 118.369 338.4 118.424 340.245C118.6 346.157 118.503 352.069 118.533 357.981C118.533 358.175 118.533 358.37 118.564 358.559C118.777 359.381 118.691 360.215 118.655 361.043C118.624 361.646 118.698 362.224 118.758 362.821C118.819 363.399 118.923 364.014 118.661 364.58C118.533 364.66 118.381 364.714 118.345 364.891C118.685 365.159 118.667 365.573 118.764 365.938C118.923 366.176 119.221 366.267 119.349 366.529C119.629 366.858 119.982 367.095 120.31 367.369C122.069 368.824 123.256 370.687 124.187 372.733C124.473 373.366 124.644 373.439 125.307 373.323C127.529 372.946 129.696 372.349 131.795 371.54C133.907 370.724 135.837 369.579 137.596 368.154C138.162 367.692 138.143 367.594 137.73 366.967C136.561 365.171 135.928 363.186 135.861 361.049C135.733 357.171 137.06 353.798 139.489 350.815C140.907 349.067 142.647 347.679 144.443 346.358C144.911 346.011 145.411 345.713 145.891 345.384C145.934 345.347 145.977 345.305 146.013 345.256C145.587 343.314 145.003 341.42 144.279 339.569C143.439 337.414 142.483 335.307 141.412 333.256C141.235 333.176 141.047 333.146 140.852 333.164C139.008 333.298 137.164 333.231 135.319 333.268C135.204 333.268 135.094 333.298 134.979 333.317C134.79 333.779 134.966 334.23 135.052 334.674C135.344 336.172 135.605 337.676 135.879 339.18C136.007 339.88 135.989 339.88 135.307 340.008C135.173 340.032 135.039 340.056 134.912 340.087C134.589 340.16 134.413 340.075 134.346 339.715C134.035 338.023 133.725 336.33 133.42 334.638C133.341 334.205 133.323 333.755 133.043 333.377H133.049Z" fill="#50A49F"/>
<path d="M105.667 310.674C106.093 309.255 106.513 307.837 107.201 306.503C108.771 303.459 111.09 301.042 113.555 298.741C115.326 297.084 117.036 295.374 118.692 293.614C119.55 292.701 120.469 291.836 121.175 290.789C120.073 290.88 119.039 291.276 117.974 291.538C116.622 291.873 115.241 291.988 113.89 292.305C112.794 292.561 111.772 293.017 110.822 293.626C108.637 295.02 106.586 296.591 104.517 298.144C102.313 299.8 99.9823 301.298 97.7121 302.868C95.9349 304.098 94.1333 305.292 92.4048 306.588C91.4858 307.276 90.7128 307.38 89.7086 306.753C87.6696 305.493 85.7342 304.104 83.9448 302.497C82.691 301.371 81.492 300.196 80.2564 299.051C79.5991 298.442 79.4104 297.736 79.2765 296.92C78.8931 294.485 78.534 292.043 77.7793 289.681C77.6758 289.352 77.548 289.017 77.3715 288.725C77.055 288.201 76.6777 288.208 76.3673 288.737C75.8864 289.547 75.8256 290.485 75.6247 291.398C75.1743 291.252 75.2778 290.771 75.1743 290.479C74.3222 288.019 73.5554 285.535 72.7337 283.069C72.5937 282.643 72.5511 282.162 72.192 281.833C71.979 282.125 72.1677 282.393 72.2468 282.661C73.105 285.358 74.0118 288.037 74.9065 290.722C75.7343 293.206 76.5499 295.69 77.3715 298.174C77.4932 298.54 77.6089 298.911 77.6941 299.288C77.8584 299.995 77.761 300.183 77.0429 300.372C75.2839 300.841 73.5067 301.249 71.7355 301.669C71.5651 301.712 71.2912 301.639 71.2852 301.961C71.8208 302.022 72.0886 302.436 72.2833 302.838C72.7702 303.849 73.5371 304.634 74.2492 305.468C75.9656 307.49 77.8341 309.377 79.7513 311.204C82.2102 313.535 84.9369 315.514 88.047 316.902C89.1851 317.408 90.3476 317.913 91.6258 318.029C92.8369 318.138 93.8838 317.724 94.8759 317.121C98.2721 315.064 101.662 312.993 105.071 310.948C105.247 310.844 105.357 310.534 105.655 310.68L105.667 310.674Z" fill="#9E6244"/>
<path d="M136.062 275.069C137.511 276.201 138.18 277.601 137.566 279.44C137.31 280.207 136.823 280.81 136.16 281.218C135.782 281.455 135.691 281.705 135.697 282.107C135.715 283.793 135.691 285.48 135.697 287.166C135.703 288.079 135.52 288.974 135.46 289.882C135.429 290.296 135.563 290.503 135.983 290.624C137.17 290.965 138.326 291.422 139.525 291.702C140.42 291.915 141.357 291.927 142.246 292.232C143.597 292.695 144.906 293.267 146.226 293.79C146.634 293.949 147.042 294.107 147.456 294.265C147.565 294.369 147.724 294.284 147.839 294.375C148.405 294.819 148.947 294.71 149.483 294.32C149.823 294.07 150.14 293.784 150.505 293.565C150.755 293.413 150.73 293.157 150.56 292.956C149.075 291.178 148.472 289.005 147.839 286.85C146.512 282.326 145.088 277.839 143.323 273.467C142.416 271.221 141.412 269.017 140.17 266.928C140.055 266.734 139.927 266.545 139.927 266.277C140.201 266.35 140.256 266.575 140.353 266.752C142.812 271.154 144.656 275.811 146.178 280.609C147.115 283.562 147.912 286.563 148.959 289.48C149.3 290.424 149.677 291.367 150.298 292.183C150.475 292.414 150.651 292.646 150.882 292.822C151.083 292.981 151.315 293.035 151.528 292.883C151.826 292.67 152.155 292.512 152.471 292.329C152.964 292.037 152.964 291.976 152.593 291.562C152.501 291.459 152.41 291.361 152.343 291.239C151.905 290.631 151.448 290.034 151.138 289.34C150.889 288.786 150.931 288.676 151.522 288.713C152.471 288.767 153.408 288.725 154.333 288.469C156.038 288 157.456 287.081 158.6 285.735C158.88 285.407 158.77 285.279 158.271 285.175C155.569 284.633 153.092 283.623 151.144 281.583C149.933 280.317 149.044 278.831 148.375 277.212C148.314 277.072 148.229 276.944 148.156 276.81C147.626 275.665 147.139 274.496 146.701 273.315C146.099 271.689 145.52 270.033 144.753 268.499C143.914 266.819 143.542 264.846 142.757 263.117C141.954 261.357 140.797 259.921 139.404 258.569C139.044 258.222 138.643 257.93 138.259 257.613C137.632 257.169 137.006 256.73 136.287 256.444C135.91 256.268 135.478 256.213 135.119 255.987C134.821 255.872 134.461 255.987 134.188 255.756C132.8 255.634 131.412 255.513 130.037 255.866C129.793 255.927 129.544 255.902 129.3 255.981C128.74 256.213 128.162 256.371 127.608 256.615C127.468 256.675 127.322 256.718 127.237 256.858C127.127 257.187 127.127 257.516 127.249 257.838C127.426 258.1 127.681 258.125 127.961 258.064C128.558 257.71 129.075 257.248 129.702 256.937C130.968 256.31 132.289 256.225 133.646 256.511C134.267 256.639 134.376 256.901 134.066 257.461C133.64 258.234 132.964 258.733 132.167 259.086C131.954 259.178 131.723 259.227 131.595 259.452C131.577 259.513 131.577 259.567 131.601 259.628C132.532 260.444 133.512 261.199 134.248 262.222C135.557 264.049 136.263 266.094 136.586 268.292C136.683 268.944 136.732 269.601 136.707 270.259C136.689 270.843 136.628 270.922 135.995 270.831C133.95 270.545 132.264 269.601 130.944 268.006C130.304 267.233 129.854 266.362 129.568 265.4C129.507 265.199 129.452 264.986 129.331 264.81C129.203 264.633 129.026 264.566 128.819 264.633C128.612 264.706 128.612 264.883 128.625 265.065C128.661 265.723 128.99 266.283 129.258 266.861C130.42 269.412 132.465 270.868 135.113 271.562C135.429 271.647 135.77 271.647 136.093 271.665C136.513 271.689 136.634 271.89 136.586 272.262C136.47 273.084 136.47 273.93 136.062 274.685C135.995 274.807 135.934 274.929 136.044 275.056L136.062 275.069Z" fill="#7257AD"/>
<path d="M118.727 358.631C118.727 354.175 118.782 349.712 118.715 345.255C118.654 341.584 118.611 337.919 118.623 334.247C118.623 333.839 118.502 333.699 118.094 333.718C117.498 333.742 116.895 333.718 116.292 333.718C115.501 333.706 114.71 333.669 113.925 333.76C113.663 334.059 113.651 334.436 113.602 334.795C113.371 336.403 113.121 338.004 112.884 339.611C112.829 339.995 112.708 340.178 112.294 340.08C111.922 339.995 111.582 339.964 111.667 339.41C111.904 337.827 112.154 336.238 112.397 334.655C112.446 334.357 112.586 334.053 112.33 333.773C111.058 333.699 109.786 333.699 108.52 333.803C107.899 336.945 107.248 340.08 106.664 343.228C106.104 346.266 105.617 349.316 105.1 352.354C105.1 352.574 105.227 352.714 105.374 352.841C107.412 354.552 108.654 356.775 109.5 359.253C109.555 359.417 109.61 359.581 109.677 359.746C109.926 360.318 110.078 360.361 110.705 360.348C112.294 360.318 113.864 360.099 115.422 359.825C116.432 359.648 117.437 359.441 118.38 359.021C118.52 358.912 118.624 358.772 118.721 358.625L118.727 358.631Z" fill="#448F92"/>
<path d="M102.825 393.123C103.281 393.068 103.531 392.678 103.847 392.423C106.556 390.243 109.398 388.276 112.539 386.76C114.523 385.798 116.58 385.043 118.741 384.581C118.984 383.57 118.789 382.547 118.85 381.536C118.868 381.281 118.875 381.031 118.625 380.867C118.54 380.605 118.302 380.556 118.089 380.471C113.981 378.791 110.749 376.057 108.4 372.294C107.335 370.59 106.635 368.72 106.093 366.796C105.911 366.151 105.594 365.749 104.912 365.743C104.395 365.737 103.884 365.536 103.367 365.694C103.178 367.911 102.971 370.133 102.794 372.349C102.435 376.854 102.241 381.36 102.374 385.877C102.447 388.295 102.49 390.718 102.825 393.123Z" fill="#448F92"/>
<path d="M103.365 365.694C103.925 365.889 104.516 365.84 105.088 365.907C105.63 365.974 105.794 366.272 105.91 366.705C106.494 368.824 107.291 370.857 108.484 372.72C110.535 375.917 113.286 378.334 116.676 380.02C117.309 380.337 117.973 380.592 118.618 380.872C119.007 380.751 118.861 380.416 118.843 380.184C118.8 379.691 119.044 379.521 119.476 379.497C119.805 379.478 120.139 379.497 120.462 379.46C120.882 379.405 121.089 379.582 121.247 379.959C122.051 381.908 123.012 383.764 124.327 385.427C126.439 388.093 129.05 390.115 132.166 391.478C134.862 392.654 137.693 393.159 140.626 393.061C141.466 393.031 142.324 393.001 143.14 392.739C143.164 391.886 143.468 391.064 143.414 390.2C143.249 389.993 143.024 390.054 142.823 390.096C140.997 390.48 139.159 390.401 137.333 390.121C134.546 389.689 132.008 388.641 129.738 386.955C126.962 384.897 125.094 382.163 123.773 379.009C123.517 378.401 123.256 377.798 123.012 377.183C122.83 376.732 122.537 376.544 122.014 376.598C121.095 376.69 120.176 376.854 119.123 376.696C119.5 376.489 119.799 376.477 120.097 376.495C120.724 376.525 121.332 376.398 121.947 376.355C122.422 376.318 122.55 376.142 122.385 375.703C121.655 373.792 120.724 371.989 119.373 370.431C119.293 370.346 119.214 370.26 119.117 370.193C118.77 369.932 118.6 369.999 118.569 370.443C118.527 371.082 118.581 371.722 118.551 372.361C118.52 372.97 118.685 373.591 118.454 374.187C118.253 374.248 118.119 374.114 117.979 374.023C115.252 372.251 113.231 369.895 112.063 366.845C112.045 366.79 112.02 366.735 112.002 366.68C111.825 366.157 111.874 366.065 112.416 366.005C113.609 365.865 114.802 365.737 115.982 365.542C116.634 365.432 117.267 365.25 117.918 365.152C118.088 365.128 118.259 365.079 118.362 364.909C118.478 364.872 118.594 364.842 118.703 364.805C118.953 363.989 118.831 363.167 118.764 362.345C118.746 362.163 118.606 362.09 118.435 362.084C118.241 362.078 118.052 362.114 117.863 362.163C115.8 362.717 113.694 363.003 111.564 363.161C110.675 363.228 109.787 363.234 108.898 363.259C108.21 363.283 108.076 363.49 108.259 364.135C108.746 365.828 109.19 367.539 109.939 369.146C111.57 372.641 114.102 375.271 117.516 377.061C117.845 377.232 118.241 377.329 118.484 377.682C118.228 377.816 118.076 377.658 117.918 377.579C113.609 375.393 110.572 372.087 109.008 367.478C108.606 366.303 108.235 365.122 107.942 363.916C107.845 363.527 107.632 363.277 107.23 363.277C106.244 363.265 105.258 363.24 104.272 363.143C103.895 363.107 103.639 363.247 103.597 363.654C103.518 364.336 103.438 365.018 103.359 365.7L103.365 365.694Z" fill="#E2D939"/>
<path d="M143.919 386.797C144.242 385.269 144.388 383.71 144.613 382.164C145.082 378.937 145.532 375.71 145.989 372.483C146.037 372.16 146.05 371.832 146.08 371.503C145.873 371.332 145.617 371.284 145.368 371.296C144.753 371.326 144.163 371.18 143.603 370.979C143.043 370.772 142.629 370.918 142.227 371.29C141.126 372.3 139.927 373.183 138.679 374.011C135.879 375.862 132.824 377.086 129.586 377.92C128.947 378.084 128.302 378.2 127.663 378.371C126.896 378.572 126.786 378.772 127.133 379.473C128.624 382.486 130.937 384.672 133.944 386.133C135.545 386.913 137.23 387.339 139.026 387.455C140.56 387.552 142.033 387.357 143.506 386.998C143.652 386.961 143.816 386.937 143.919 386.803V386.797Z" fill="#50A49F"/>
<path d="M111.406 267.555C111.893 267.135 112.27 266.617 112.587 266.057C112.721 265.814 113.098 265.564 112.964 265.321C113.025 265.181 113.055 265.034 113.061 264.876C113.061 264.864 113.061 264.852 113.061 264.84C113.232 264.572 113.384 264.267 113.506 263.908C113.536 263.859 113.567 263.811 113.597 263.762C114.784 261.753 116.512 260.304 118.576 259.25C119.446 258.806 120.347 258.386 121.351 258.441C122.52 258.508 123.64 258.282 124.747 257.972C125.612 257.619 126.494 257.619 127.383 257.85C127.565 258.015 127.797 257.941 128.004 257.972C128.387 257.862 128.722 258.057 129.056 258.173C129.969 258.483 130.895 258.794 131.625 259.482C131.625 259.518 131.637 259.549 131.637 259.585C131.296 259.859 131.369 260.06 131.716 260.286C132.544 260.809 133.22 261.515 133.81 262.276C135.009 263.817 135.733 265.595 136.111 267.488C136.251 268.182 136.506 268.864 136.543 269.576C136.585 270.374 136.397 270.544 135.636 270.374C132.897 269.753 130.998 268.158 130.03 265.497C129.945 265.26 129.884 265.01 129.781 264.785C129.61 264.426 129.324 264.2 128.916 264.194C128.527 264.194 128.332 264.456 128.217 264.791C128.052 265.254 127.736 265.619 127.34 265.844C126.366 266.404 125.465 267.086 124.486 267.634C123.469 268.207 122.392 268.651 121.266 268.955C120.712 269.108 120.152 269.181 119.756 268.59C119.635 268.414 119.428 268.286 119.209 268.298C118.752 268.328 118.29 268.207 117.827 268.377C117.413 268.529 117.097 268.432 117.048 267.92C117.024 267.695 116.926 267.519 116.677 267.458C116.202 267.342 115.04 267.951 114.869 268.414C114.06 268.511 113.244 268.414 112.435 268.432C112.112 268.322 111.777 268.237 111.467 268.097C111.175 267.969 111.114 267.786 111.394 267.543L111.406 267.555Z" fill="#7257AD"/>
<path d="M154.217 330.235C153.346 332.786 152.591 335.374 151.959 337.992C151.319 340.622 150.79 343.265 150.948 345.998C151.027 347.362 152.196 349.505 153.644 349.572C154.691 349.621 155.775 349.371 156.809 349.061C156.864 349.042 156.913 349 156.949 348.957C157.321 348.482 157.722 348.269 158.398 348.354C159.201 348.464 159.713 347.74 159.512 346.924C159.384 346.418 159.426 346.248 160.017 346.394C160.613 346.54 161.082 346.102 161.064 345.402C161.045 344.756 161.204 344.47 161.898 344.537C162.318 344.58 162.725 344.074 162.823 343.581C162.999 342.662 162.737 341.791 162.518 340.92C162.135 339.404 161.63 337.925 160.954 336.512C160.638 335.849 161.1 335.465 161.423 335.027C161.356 334.911 161.24 334.887 161.125 334.875C159.22 334.741 157.753 333.718 156.402 332.494C155.732 331.885 155.056 331.264 154.576 330.479C154.503 330.357 154.411 330.205 154.217 330.241V330.235Z" fill="#9E6244"/>
<path d="M143.918 386.797C143.438 386.742 143.012 386.967 142.561 387.053C138.191 387.893 134.338 386.773 130.924 384.015C129.311 382.712 128.076 381.086 127.175 379.211C126.956 378.748 127.041 378.639 127.631 378.517C130.875 377.847 134.004 376.842 136.925 375.241C138.879 374.17 140.699 372.903 142.336 371.387C142.683 371.065 142.993 370.906 143.517 371.113C144.326 371.43 145.203 371.497 146.073 371.503C146.335 370.736 146.298 369.926 146.438 369.141C146.274 368.763 145.903 368.763 145.598 368.745C144.649 368.684 143.772 368.392 142.932 367.996C142.5 367.795 142.184 367.85 141.831 368.166C140.65 369.226 139.488 370.303 138.191 371.229C136.104 372.714 133.833 373.81 131.423 374.657C129.019 375.497 126.536 376.008 124.022 376.386C123.243 376.501 123.133 376.69 123.42 377.433C124.107 379.205 124.862 380.94 125.927 382.535C128.112 385.792 131.07 388.021 134.783 389.257C136.128 389.701 137.503 389.963 138.934 390.012C140.315 390.06 141.673 390.024 143.024 389.762C143.292 389.713 143.505 389.622 143.614 389.366C143.638 388.508 143.937 387.674 143.912 386.809L143.918 386.797Z" fill="#E2D939"/>
<path d="M147.199 363.655C147.601 361.347 147.662 359.009 147.552 356.684C147.479 355.131 147.564 353.56 147.205 352.026C146.797 351.922 146.56 352.227 146.304 352.44C145.489 353.122 144.734 353.871 144.053 354.693C142.452 356.623 141.648 358.821 141.855 361.347C141.886 361.737 142.001 362.108 142.135 362.474C142.202 362.65 142.306 362.827 142.214 363.089C141.837 362.754 141.77 362.315 141.691 361.901C141.204 359.32 141.947 357.049 143.474 354.985C144.399 353.731 145.507 352.653 146.767 351.74C146.937 351.612 147.114 351.484 147.126 351.241C147.053 350.327 146.944 349.426 146.724 348.537C146.451 348.409 146.231 348.562 146.031 348.702C144.247 349.98 142.604 351.405 141.259 353.165C140.121 354.656 139.311 356.294 138.946 358.12C138.429 360.684 138.575 363.174 140.139 365.414C140.474 365.895 140.888 366.303 141.32 366.687C142.05 367.344 142.318 367.344 143.042 366.675C143.961 365.834 144.935 365.08 145.982 364.41C146.384 364.148 146.895 364.063 147.199 363.649V363.655Z" fill="#E2D939"/>
<path d="M71.3026 301.955C73.2807 301.468 75.2588 300.975 77.2429 300.494C77.8759 300.341 78.0707 300.049 77.8942 299.416C77.1455 296.743 76.2083 294.131 75.3257 291.495C74.571 289.248 73.8346 286.996 73.1103 284.737C72.7999 283.769 72.4043 282.825 72.2034 281.82C72.1121 281.589 72.0208 281.358 71.9356 281.12C71.7409 280.591 71.3574 280.438 70.8157 280.572C69.6289 280.865 68.4299 281.12 67.243 281.394C66.9813 281.455 66.7257 281.528 66.464 281.595C65.8249 281.705 65.1919 281.851 64.5711 282.046C64.5468 282.058 64.5224 282.07 64.492 282.07C64.206 282.155 63.8834 282.064 63.6277 282.277C63.6095 282.289 63.5912 282.295 63.5669 282.301C63.0313 282.472 62.8913 282.697 63.0313 283.306C63.2443 284.231 63.5608 285.126 63.8651 286.028C65.545 291.038 67.1639 296.073 68.8255 301.09C68.9107 301.346 68.9959 301.608 69.142 301.839C69.3307 302.144 69.5559 302.314 69.9636 302.18C70.3471 302.058 70.767 302.119 71.1627 302.022C71.2113 301.997 71.26 301.973 71.3087 301.955H71.3026Z" fill="#251B43"/>
<path d="M147.199 363.655C145.653 364.282 144.363 365.287 143.146 366.389C142.215 367.235 142.111 367.247 141.192 366.383C139.53 364.818 138.849 362.852 138.837 360.605C138.818 357.141 140.261 354.303 142.574 351.838C143.621 350.717 144.807 349.755 146.055 348.86C146.262 348.714 146.469 348.574 146.725 348.538C146.749 348.27 146.7 348.02 146.542 347.795C146.451 347.795 146.365 347.813 146.286 347.856C143.87 349.475 141.709 351.369 140.121 353.847C138.642 356.154 137.918 358.687 138.149 361.421C138.344 363.74 139.238 365.78 141.107 367.272C141.46 367.552 141.478 367.734 141.156 368.039C137.985 371.016 134.375 373.244 130.17 374.462C128.119 375.059 126.043 375.509 123.931 375.814C123.383 375.893 123.067 375.753 122.848 375.229C122.403 374.152 121.88 373.117 121.308 372.1C120.797 371.193 120.152 370.401 119.427 369.671C119.026 369.269 118.825 368.849 118.867 368.282C118.904 367.856 118.904 367.424 118.867 367.004C118.825 366.559 118.971 366.365 119.421 366.438C119.348 366.133 119.099 366.042 118.843 365.957C118.685 365.871 118.587 365.957 118.52 366.091C118.441 366.249 118.429 366.425 118.435 366.602C118.478 369.001 118.417 371.394 118.435 373.792C118.435 374.024 118.435 374.261 118.618 374.444C118.843 374.286 118.733 374.054 118.739 373.853C118.752 372.617 118.739 371.381 118.739 370.127C119.038 370.17 119.159 370.383 119.306 370.553C120.651 372.124 121.551 373.951 122.318 375.856C122.477 376.252 122.178 376.167 122.002 376.185C121.095 376.264 120.188 376.325 119.281 376.404C119.105 376.417 118.843 376.356 118.873 376.666C118.898 376.934 119.117 376.928 119.318 376.916C120.225 376.867 121.144 376.873 122.044 376.745C122.55 376.672 122.738 376.837 122.903 377.257C123.694 379.242 124.503 381.214 125.727 382.986C127.875 386.085 130.724 388.325 134.272 389.531C137.114 390.499 140.072 390.852 143.067 390.201C143.176 390.176 143.298 390.201 143.414 390.201C143.481 389.921 143.547 389.641 143.614 389.36C143.322 389.689 142.89 389.622 142.531 389.683C140.784 389.981 139.025 389.994 137.285 389.701C133.395 389.056 130.133 387.236 127.486 384.313C125.982 382.651 124.935 380.709 124.077 378.651C123.87 378.158 123.676 377.659 123.456 377.165C123.31 376.831 123.323 376.624 123.755 376.569C126.42 376.21 129.05 375.662 131.594 374.767C133.438 374.121 135.197 373.311 136.871 372.295C138.733 371.162 140.364 369.744 141.935 368.258C142.215 367.996 142.409 367.923 142.781 368.106C143.627 368.532 144.521 368.824 145.483 368.891C145.806 368.916 146.14 368.958 146.426 369.141C146.53 368.891 146.505 368.636 146.499 368.374C146.104 368.191 145.672 368.228 145.258 368.155C144.667 368.051 144.089 367.899 143.535 367.667C143.103 367.491 143.091 367.381 143.426 367.071C144.278 366.285 145.185 365.567 146.177 364.958C146.463 364.782 146.767 364.678 147.084 364.587C147.132 364.276 147.236 363.972 147.187 363.649L147.199 363.655Z" fill="#58A897"/>
<path d="M118.393 358.912C115.806 359.765 113.134 360.069 110.438 360.239C110.103 360.258 109.969 360.106 109.866 359.801C109.257 357.987 108.508 356.239 107.346 354.699C106.689 353.828 105.897 353.098 105.1 352.367C104.802 353.42 104.729 354.504 104.668 355.588C104.704 355.74 104.765 355.88 104.875 355.996C106.165 357.433 106.768 359.217 107.376 360.994C107.547 361.488 107.693 361.993 107.827 362.492C107.949 362.943 108.222 363.107 108.685 363.065C109.841 362.961 110.998 362.912 112.154 362.858C113.444 362.797 114.729 362.571 115.995 362.303C116.731 362.145 117.474 362.023 118.198 361.792C118.63 361.652 118.825 361.421 118.794 360.946C118.758 360.386 118.794 359.825 118.782 359.265C118.782 359.04 118.807 358.711 118.393 358.924V358.912Z" fill="#E2D939"/>
<path d="M71.1506 302.022C70.7855 301.791 70.4629 302.108 70.1159 302.132C69.5499 302.175 69.2699 301.949 69.1117 301.474C68.4665 299.532 67.8397 297.59 67.2006 295.648C66.452 293.377 65.6973 291.112 64.9486 288.841C64.3765 287.1 63.7861 285.364 63.2445 283.611C63.1045 283.16 62.934 282.606 63.5609 282.296C63.0375 282.332 62.5628 282.552 62.0698 282.698C61.7472 282.795 61.7229 283.075 61.7472 283.361C61.8081 284.165 62.1489 284.89 62.3863 285.638C63.1227 287.952 63.8835 290.253 64.6443 292.561C65.2225 294.314 65.819 296.062 66.4033 297.815C66.8293 299.088 67.2493 300.36 67.6571 301.639C67.9127 302.436 68.1379 302.57 68.9535 302.424C69.5438 302.315 70.1342 302.242 70.7307 302.168C70.8889 302.15 71.035 302.126 71.1506 302.016V302.022Z" fill="#DD3682"/>
<path d="M118.393 358.912C118.709 358.876 118.734 359.089 118.734 359.32C118.734 359.728 118.734 360.136 118.734 360.544C118.734 361.469 118.746 361.512 117.876 361.713C115.727 362.206 113.579 362.663 111.357 362.718C110.45 362.742 109.543 362.821 108.637 362.9C108.277 362.931 108.095 362.864 107.985 362.462C107.395 360.368 106.75 358.291 105.484 356.477C105.246 356.142 104.991 355.832 104.662 355.582C104.553 355.777 104.54 355.99 104.54 356.209C104.942 357.128 105.539 357.944 105.959 358.858C106.452 359.935 106.774 361.068 107.145 362.182C107.273 362.559 107.091 362.675 106.744 362.663C105.971 362.638 105.21 362.486 104.431 362.547C104.206 362.565 103.962 362.517 103.755 362.663C103.67 362.986 103.579 363.308 103.591 363.649C103.719 363.387 103.877 363.235 104.212 363.278C105.21 363.406 106.22 363.424 107.224 363.418C107.547 363.418 107.699 363.564 107.778 363.88C108.35 366.139 108.971 368.386 110.122 370.438C112.021 373.847 114.796 376.295 118.308 377.945C118.466 378.018 118.612 378.073 118.697 377.89C118.795 377.689 118.716 377.5 118.527 377.397C118.259 377.251 117.967 377.129 117.693 376.989C113.719 374.907 110.949 371.759 109.452 367.521C109.026 366.322 108.697 365.086 108.32 363.874C108.21 363.515 108.375 363.424 108.691 363.43C110.182 363.454 111.668 363.351 113.147 363.186C114.723 363.01 116.287 362.779 117.815 362.346C117.961 362.304 118.119 362.291 118.265 362.249C118.588 362.151 118.74 362.249 118.728 362.602C118.709 363.339 118.703 364.075 118.697 364.812C118.922 364.727 118.947 364.544 118.947 364.343C118.947 363.558 118.892 362.785 118.795 361.999C118.685 361.141 118.813 360.246 118.831 359.369C118.831 359.119 118.856 358.87 118.716 358.644C118.533 358.657 118.405 358.73 118.381 358.925L118.393 358.912Z" fill="#4C948A"/>
<path d="M154.218 330.236C155.508 332.074 157.09 333.572 159.148 334.54C159.872 334.881 160.627 335.045 161.424 335.027C162.057 334.881 162.684 334.741 163.256 334.394C164.796 333.462 165.471 331.855 164.224 330.217C163.956 330.071 163.706 329.694 163.365 330.022C163.043 330.333 163.189 330.668 163.402 331.015C164.102 332.159 163.432 333.347 162.069 333.755C160.499 334.223 159.33 333.469 158.168 332.695C157.224 332.068 156.366 331.301 155.684 330.369C155.216 329.724 154.82 329.054 154.692 328.251C154.534 327.289 155.009 326.668 155.776 326.199C156.098 326.004 156.494 325.858 156.433 325.359C156.141 324.89 155.788 324.914 155.35 325.182C153.536 326.284 153.073 327.764 153.974 329.657C154.065 329.846 154.138 330.047 154.218 330.242V330.236Z" fill="#EECD75"/>
<path d="M152.355 291.246C152.355 291.246 152.355 291.282 152.355 291.307C152.355 291.623 152.976 291.782 152.702 292.056C152.331 292.421 151.807 292.64 151.326 292.871C151.132 292.963 150.979 292.75 150.846 292.61C150.121 291.855 149.726 290.923 149.318 289.979C148.648 288.439 148.259 286.807 147.754 285.218C147.315 283.842 146.944 282.442 146.506 281.066C145.441 277.736 144.278 274.442 142.799 271.258C142.033 269.602 141.235 267.964 140.334 266.387C140.219 266.186 140.109 265.906 139.829 266.04C139.507 266.192 139.744 266.417 139.848 266.612C140.438 267.732 141.059 268.834 141.606 269.979C142.544 271.921 143.353 273.912 144.114 275.934C144.96 278.186 145.709 280.475 146.463 282.759C146.841 283.903 147.109 285.084 147.474 286.235C148.119 288.269 148.636 290.351 149.78 292.196C149.969 292.5 150.182 292.762 150.432 293.005C150.639 293.212 150.669 293.395 150.395 293.572C149.896 293.894 149.391 294.211 148.91 294.558C148.569 294.808 148.338 294.485 148.07 294.424C147.875 294.381 147.687 294.266 147.468 294.278C147.772 294.552 148.192 294.576 148.527 294.795C148.813 294.978 148.959 294.601 149.208 294.625C149.665 294.302 150.127 293.998 150.566 293.651C150.809 293.462 150.949 293.511 151.144 293.706C151.375 293.931 151.637 294.132 151.905 294.321C152.032 294.412 152.215 294.442 152.318 294.29C152.416 294.144 152.361 293.992 152.197 293.9C152.166 293.882 152.136 293.858 152.105 293.833C151.217 293.139 151.223 293.091 152.258 292.537C153.171 292.05 153.183 291.909 152.361 291.246H152.355Z" fill="#7257AD"/>
<path d="M103.762 362.663C104.845 362.717 105.922 362.772 107.006 362.827C107.316 362.845 107.474 362.791 107.365 362.407C106.732 360.197 106.008 358.036 104.541 356.209C104.285 358.188 104.03 360.166 103.78 362.145C103.756 362.316 103.768 362.486 103.762 362.663Z" fill="#E2D939"/>
<path d="M124.754 257.972C125.63 257.93 126.513 257.893 127.389 257.85C127.377 257.497 127.365 257.15 127.353 256.797C127.353 256.73 127.274 256.724 127.255 256.669C126.872 255.598 126.355 254.618 125.381 253.954C125.222 253.844 125.064 253.729 124.894 253.643C124.06 253.211 123.622 253.43 123.384 254.368C123.025 255.787 123.512 256.907 124.596 257.814C124.65 257.863 124.705 257.917 124.754 257.972Z" fill="#E2D939"/>
<path d="M147.096 364.592C146.907 364.343 146.7 364.507 146.53 364.592C145.252 365.28 144.156 366.218 143.073 367.174C142.811 367.405 142.945 367.564 143.213 367.679C144.266 368.136 145.349 368.428 146.506 368.367C146.81 367.43 146.761 366.443 146.968 365.493C147.035 365.195 147.047 364.891 147.09 364.586L147.096 364.592Z" fill="#F7D549"/>
<path d="M147.127 351.247C145.8 352.282 144.54 353.378 143.487 354.711C142.294 356.227 141.643 357.938 141.406 359.832C141.266 360.934 141.466 361.975 141.88 362.986C141.941 363.132 141.953 363.491 142.276 363.357C142.544 363.241 142.519 362.979 142.41 362.754C142.063 362.042 141.99 361.281 141.984 360.495C141.972 358.255 142.848 356.367 144.248 354.687C144.99 353.798 145.824 352.988 146.749 352.288C146.883 352.185 147.048 352.118 147.194 352.032C147.194 351.771 147.261 351.497 147.115 351.247H147.127Z" fill="#5FAA90"/>
<path d="M146.415 347.88C146.458 347.85 146.501 347.825 146.543 347.795C146.513 346.918 146.257 346.084 146.026 345.25C145.995 345.25 145.971 345.274 145.959 345.299C145.813 345.427 145.776 345.615 145.825 345.78C146.02 346.48 146.062 347.229 146.421 347.88H146.415Z" fill="#F8D549"/>
<path d="M64.5586 282.052C65.2037 281.96 65.8367 281.814 66.4515 281.601C65.7759 281.583 65.149 281.747 64.5586 282.052Z" fill="#58C3D7"/>
<path d="M63.6152 282.283C63.9013 282.216 64.1934 282.143 64.4795 282.076C64.1813 282.1 63.8343 281.924 63.6152 282.283Z" fill="#58C3D7"/>
<path d="M112.324 393.427C112.939 393.299 113.414 392.898 113.949 392.617C115.1 392.027 116.238 391.418 117.498 391.089C117.954 390.968 118.338 390.62 118.837 390.639C119.025 389.671 119.037 388.697 118.837 387.729C118.849 388.483 118.855 389.238 118.873 389.987C118.879 390.304 118.757 390.438 118.435 390.541C116.408 391.168 114.497 392.045 112.689 393.147C112.562 393.226 112.446 393.33 112.324 393.427Z" fill="#4E9488"/>
<path d="M145.806 318.443C145.441 318.473 145.07 318.479 144.711 318.54C144.394 318.601 144.205 318.802 144.449 319.118C145.246 320.16 145.91 321.304 146.835 322.254C147.717 323.161 148.959 323.185 149.896 322.814C151.04 322.357 151.284 320.957 150.462 320.001C149.78 319.21 148.849 318.905 147.882 318.698C147.2 318.558 146.512 318.449 145.806 318.437V318.443Z" fill="#EF6535" stroke="#EF6535" stroke-miterlimit="10"/>
<path d="M133.049 333.377C133.244 334.497 133.438 335.618 133.633 336.738C133.822 337.803 134.035 338.857 134.205 339.922C134.254 340.239 134.339 340.391 134.68 340.3C134.887 340.245 135.094 340.214 135.301 340.166C136.22 339.953 136.226 339.953 136.062 339.052C135.709 337.134 135.343 335.222 134.984 333.31C134.339 333.286 133.688 333.207 133.049 333.377Z" fill="#DD3682"/>
<path d="M112.324 333.773C112.032 335.739 111.746 337.706 111.435 339.672C111.387 339.965 111.399 340.074 111.715 340.141C112.847 340.385 112.884 340.403 113.073 339.307C113.383 337.462 113.639 335.605 113.919 333.754C113.389 333.718 112.854 333.706 112.324 333.773Z" fill="#DD3682"/>
<path d="M131.649 259.592C131.417 259.58 131.198 259.647 131.125 259.872C131.028 260.171 131.344 260.201 131.496 260.305C132.708 261.139 133.627 262.216 134.424 263.464C135.233 264.731 135.666 266.119 135.964 267.531C136.122 268.286 136.445 269.023 136.42 269.827C136.408 270.216 136.274 270.375 135.909 270.296C133.164 269.711 131.192 268.213 130.212 265.51C130.036 265.029 130.017 264.439 129.421 264.158C128.885 263.903 128.338 264.037 128.149 264.585C127.93 265.23 127.492 265.632 126.901 265.942C125.915 266.466 125.051 267.197 124.047 267.714C123.146 268.177 122.215 268.548 121.241 268.81C120.76 268.938 120.261 269.133 119.89 268.481C119.731 268.201 119.36 268.067 118.922 268.134C118.484 268.195 118.027 268.11 117.589 268.311C117.394 268.402 117.248 268.28 117.212 268.012C117.12 267.306 116.804 267.099 116.177 267.343C115.8 267.489 115.441 267.665 115.039 267.769C114.649 267.866 114.759 268.165 114.881 268.426C115.349 268.524 115.714 268.226 116.122 268.086C116.25 268.043 116.372 267.933 116.475 268.086C116.554 268.201 116.518 268.347 116.433 268.463C116.341 268.585 116.238 268.7 116.153 268.828C115.994 269.066 115.721 269.321 116.287 269.407C116.5 269.437 116.512 269.644 116.524 269.821C116.719 269.912 116.804 269.754 116.907 269.656C117.151 269.419 117.443 269.279 117.753 269.163C118.8 268.767 119.153 268.889 119.658 269.833C119.847 269.742 120.005 269.608 120.243 269.614C121.32 269.632 122.282 269.181 123.268 268.84C124.881 268.28 126.153 267.105 127.644 266.32C127.68 266.302 127.705 266.277 127.735 266.253C128.267 265.823 128.693 265.928 129.013 266.57C129.439 267.428 129.829 268.305 130.413 269.078C130.973 269.821 130.59 271.781 130.59 272.694C130.59 273.425 130.65 274.405 130.468 275.118C130.322 275.696 129.53 276.585 130.675 276.719C131.21 276.78 131.63 276.64 131.989 276.201C133.109 274.813 134.223 274.509 135.891 275.081C135.946 275.099 136.006 275.081 136.061 275.081C136.639 274.168 136.67 273.121 136.761 272.092C136.792 271.757 136.816 271.562 136.28 271.544C134.71 271.501 133.274 270.923 132.008 270.003C130.535 268.932 129.494 267.519 128.952 265.76C128.898 265.577 128.867 265.388 128.831 265.194C128.8 265.023 128.611 264.792 128.934 264.731C129.214 264.676 129.251 264.901 129.33 265.12C129.537 265.681 129.689 266.253 129.975 266.789C130.936 268.585 132.348 269.839 134.253 270.551C134.978 270.825 135.714 270.99 136.493 271.032C136.798 271.044 136.871 270.959 136.877 270.697C136.962 268.152 136.414 265.76 135.246 263.501C134.46 261.979 133.316 260.767 131.953 259.75C131.862 259.684 131.752 259.653 131.649 259.604V259.592Z" fill="#7257AD"/>
<path d="M135.594 285.059C135.594 283.842 135.594 282.928 135.594 282.015C135.594 281.704 135.557 281.546 135.162 281.674C134.133 282.009 133.123 281.899 132.24 281.278C131.741 280.925 131.504 281.083 131.126 281.443C130.536 282.009 130.579 282.654 130.706 283.348C130.913 284.444 131.108 285.54 131.321 286.63C131.425 287.16 131.54 287.689 131.607 288.213C131.711 289.017 132.258 289.37 132.861 289.571C133.494 289.784 134.115 290.033 134.754 290.228C135.04 290.32 135.362 290.441 135.356 289.942C135.332 288.201 135.807 286.484 135.594 285.047V285.059Z" fill="#EF6535" stroke="#EF6535" stroke-miterlimit="10"/>
<path d="M122.203 285.681C122.368 286.631 122.526 287.574 122.702 288.524C122.763 288.847 122.994 288.792 123.244 288.762C124.376 288.628 125.338 288.11 126.196 287.422C127.553 286.338 128.606 284.987 129.452 283.477C129.513 283.373 129.586 283.252 129.464 283.166C129.355 283.087 129.233 283.185 129.154 283.252C128.375 283.873 127.474 284.244 126.549 284.554C125.319 284.962 124.054 285.224 122.763 285.151C122.246 285.121 122.136 285.224 122.203 285.681Z" fill="#89523A"/>
<path d="M134.814 277.053C133.937 277.041 133.225 277.607 133.036 278.423C133.036 278.442 133.036 278.46 133.036 278.478C133.036 278.722 132.598 278.983 132.927 279.166C133.134 279.282 133.329 278.88 133.529 278.716C134.004 278.326 134.467 277.924 134.929 277.522C135.033 277.437 135.148 277.34 135.112 277.187C135.069 277.011 134.905 277.053 134.82 277.047L134.814 277.053Z" fill="#89523A"/>
<path d="M146.415 347.879C146.439 347.252 146.196 346.674 146.026 346.089C145.946 345.821 145.971 345.566 145.946 345.298C145.338 345.42 144.906 345.852 144.431 346.193C142.441 347.618 140.56 349.152 139.063 351.118C137.292 353.438 136.135 355.995 135.801 358.924C135.484 361.633 135.971 364.154 137.28 366.534C137.353 366.668 137.438 366.802 137.523 366.93C138.016 367.661 138.01 367.648 137.322 368.19C134.948 370.059 132.295 371.362 129.392 372.196C127.961 372.61 126.513 372.933 125.058 373.238C124.559 373.341 124.468 372.994 124.364 372.732C124.096 372.069 123.737 371.46 123.39 370.839C122.392 369.073 121.041 367.636 119.422 366.437C119.203 366.37 119.039 366.175 118.734 366.187C118.734 367.131 118.734 368.075 118.734 369.012C118.734 369.189 118.85 369.298 118.96 369.402C120.694 371.015 121.759 373.061 122.672 375.204C123.037 376.063 123.037 376.069 123.963 375.953C128.053 375.423 131.984 374.364 135.612 372.367C137.359 371.405 138.965 370.236 140.438 368.878C140.779 368.562 141.12 368.245 141.467 367.935C141.723 367.703 141.735 367.539 141.424 367.314C139.343 365.779 138.412 363.618 138.284 361.122C138.101 357.517 139.458 354.455 141.863 351.819C143.135 350.424 144.547 349.201 146.111 348.147C146.22 348.074 146.318 347.971 146.415 347.879Z" fill="#E2D939"/>
<path d="M118.619 374.444C118.619 373.342 118.649 372.234 118.6 371.138C118.564 370.377 118.765 369.628 118.637 368.849C118.515 368.094 118.6 367.302 118.612 366.529C118.612 366.322 118.497 366.036 118.844 365.957C118.74 365.579 119.148 364.976 118.369 364.903C116.348 365.336 114.315 365.713 112.246 365.835C111.802 365.859 111.619 366.017 111.79 366.492C112.398 368.203 113.244 369.78 114.443 371.144C115.521 372.374 116.72 373.464 118.15 374.286C118.296 374.371 118.418 374.523 118.619 374.444Z" fill="#448F92"/>
<path d="M120.377 337.803C120.365 338.54 121.132 339.307 121.874 339.301C122.593 339.301 123.347 338.564 123.359 337.858C123.378 337.085 122.666 336.385 121.868 336.385C121.095 336.385 120.389 337.048 120.377 337.797V337.803Z" fill="#DD3682"/>
<path d="M128.016 257.978C129.282 258.35 130.475 258.88 131.637 259.488C132.538 259.123 133.414 258.727 133.992 257.887C134.023 257.838 134.065 257.796 134.102 257.747C134.698 256.913 134.577 256.536 133.591 256.335C131.448 255.896 129.586 256.444 128.016 257.978Z" fill="#E2D939"/>
<path d="M64.9615 283.891C65.2171 284.682 65.424 285.346 65.637 286.01C66.8787 289.772 68.1203 293.541 69.3619 297.304C69.4045 297.431 69.4714 297.553 69.508 297.681C69.6236 298.065 69.6297 298.57 69.934 298.783C70.2383 298.996 70.6644 298.673 71.0356 298.588C72.7337 298.211 74.4257 297.791 76.1177 297.395C76.4464 297.322 76.3186 297.17 76.2516 296.975C75.29 294.083 74.3284 291.191 73.385 288.293C72.8007 286.503 72.2347 284.707 71.6564 282.917C71.4678 282.326 71.3217 282.296 70.7131 282.46C69.5871 282.764 68.4428 283.026 67.3047 283.3C66.5926 283.471 65.8805 283.629 65.1684 283.793C65.0406 283.824 64.9493 283.873 64.9554 283.903L64.9615 283.891Z" fill="#FEFEFE"/>
<path d="M386.491 242.994C391.47 245.685 396.436 247.835 401.147 249.424C407.538 251.579 413.454 252.699 418.31 252.711C419.479 252.711 420.593 252.657 421.634 252.529C424.799 252.145 427.343 250.513 428.657 248.084L433.131 239.804L363.6 202.232L359.127 210.513C357.812 212.942 357.843 215.968 359.261 218.823C359.729 219.761 360.283 220.729 360.928 221.703C362.139 223.542 363.661 225.435 365.457 227.347C366.382 228.333 367.386 229.326 368.451 230.318C370.04 231.792 371.78 233.259 373.655 234.708C377.434 237.618 381.756 240.437 386.497 242.994H386.491Z" fill="#C9BD2D"/>
<g style="mix-blend-mode:screen" opacity="0.3">
<path d="M365.45 227.347L375.529 208.68L369.668 205.514L360.922 221.709C362.133 223.548 363.655 225.441 365.45 227.353V227.347Z" fill="#FCEE21"/>
<path d="M373.649 234.708L384.952 213.769L379.09 210.604L368.445 230.318C370.034 231.791 371.775 233.258 373.649 234.708Z" fill="#FCEE21"/>
<path d="M401.141 249.423C407.531 251.578 413.447 252.699 418.304 252.711L427.05 236.516L412.388 228.595L401.141 249.423Z" fill="#FCEE21"/>
</g>
<path d="M433.136 239.825C437.455 231.829 425.392 216.935 406.192 206.559C386.993 196.183 367.927 194.254 363.609 202.25C359.29 210.247 371.353 225.141 390.553 235.517C409.752 245.893 428.818 247.822 433.136 239.825Z" fill="#E2D939"/>
<path d="M426.821 234.259C429.895 228.567 420.054 217.288 404.842 209.067C389.629 200.845 374.804 198.795 371.73 204.487C368.656 210.179 378.497 221.458 393.709 229.679C408.922 237.901 423.747 239.951 426.821 234.259Z" fill="#C9BD2D"/>
<path d="M403.923 210.707C389.462 202.89 375.36 200.661 371.361 205.35C371.453 205.045 371.562 204.747 371.714 204.461C374.788 198.768 389.614 200.82 404.824 209.039C420.04 217.258 429.876 228.54 426.802 234.233C426.65 234.513 426.461 234.769 426.254 235.012C427.983 229.094 418.385 218.519 403.923 210.707Z" fill="#B5A724"/>
<path d="M395.724 225.892C405.729 231.298 415.425 232.753 417.379 229.137C419.333 225.52 412.802 218.208 402.79 212.802C392.784 207.395 383.088 205.94 381.135 209.557C379.181 213.173 385.711 220.485 395.724 225.892Z" fill="#E2D939"/>
<g opacity="0.32">
<path d="M402.181 223.256C403.684 224.054 404.987 224.516 406.076 224.644C407.166 224.772 407.902 224.62 408.28 224.175C408.657 223.737 408.706 223.104 408.42 222.288L405.547 221.57C405.742 222.014 405.833 222.416 405.833 222.781C405.833 223.14 405.711 223.42 405.468 223.621C405.224 223.816 404.792 223.859 404.159 223.743C403.532 223.627 402.753 223.329 401.834 222.848L393.307 212.705C393.045 212.388 392.887 212.12 392.845 211.895C392.802 211.67 392.96 211.018 392.942 210.945L388.268 212.449C388.353 212.498 389.308 212.796 389.582 212.948C389.856 213.101 390.13 213.332 390.392 213.649L398.943 223.822C399.205 224.139 399.363 224.407 399.406 224.632C399.448 224.857 399.29 225.509 399.308 225.582L403.97 225.405L402.169 223.262L402.181 223.256Z" fill="#49327C"/>
<path d="M412.035 222.508C412.035 222.873 411.859 223.116 411.506 223.226C411.153 223.336 410.733 223.293 410.246 223.08C409.759 222.873 409.345 222.556 408.992 222.142C408.639 221.728 408.469 221.333 408.469 220.967C408.469 220.602 408.645 220.358 409.004 220.249C409.363 220.139 409.777 220.182 410.264 220.395C410.751 220.602 411.165 220.919 411.518 221.333C411.871 221.747 412.041 222.142 412.041 222.508" fill="#49327C"/>
</g>
<path d="M275.811 172.771C276.322 178.475 272.439 184.302 274.387 189.684C275.105 191.657 276.535 193.282 278.063 194.719C283.267 199.602 290.114 203.091 293.413 209.417C294.015 210.573 292.457 211.718 291.368 212.43C290.278 213.143 289.031 214.044 289.031 215.347C289.031 215.657 289.11 215.98 289.304 216.223C289.694 216.729 290.455 216.808 291.051 216.577C291.648 216.345 292.104 215.87 292.524 215.395C294.508 213.179 296.188 210.695 297.509 208.028C297.917 207.2 298.3 206.324 298.282 205.398C298.251 204.01 297.338 202.817 296.45 201.745C292.469 196.935 288.239 192.339 283.778 187.973C283.79 187.182 284.35 186.244 284.734 185.556C285.872 183.529 287.01 181.501 288.148 179.474C284.934 177.757 281.581 176.296 278.13 175.121C276.681 174.627 276.462 174.159 275.805 172.777L275.811 172.771Z" fill="#9E6244"/>
<path d="M323.174 158.852C321.787 157.689 321.007 155.917 320.886 154.127C320.046 153.994 318.701 154.188 317.891 153.963C312.687 152.526 307.289 151.79 301.89 151.777C301.47 154.541 300.064 157.147 297.977 159.01C297.672 159.284 297.338 159.552 297.155 159.918C297.039 160.143 296.985 160.399 296.93 160.648C296.346 163.479 296.066 166.371 296.096 169.263C296.102 169.903 296.145 170.603 296.571 171.084C297.045 171.626 297.837 171.717 298.555 171.766C301.093 171.936 303.643 171.973 306.175 172.259C311.221 172.825 316.151 174.39 321.227 174.481C322.273 169.513 323.326 164.551 324.373 159.583C323.947 159.412 323.558 159.163 323.18 158.846L323.174 158.852Z" fill="#9E6244"/>
<path d="M322.841 196.223C312.421 199.328 305.75 200.82 297.527 195.614C297.893 193.812 297.686 191.65 298.051 189.848C298.051 190.037 311.958 191.017 313.236 191.121C315.786 191.334 318.331 186.786 320.869 187.096C323.407 187.407 323.066 193.891 322.841 196.223Z" fill="#9E6244"/>
<path d="M345.835 174.706C345.324 180.752 349.207 186.938 347.259 192.643C346.541 194.731 345.11 196.46 343.583 197.982C338.379 203.163 331.532 206.859 328.233 213.569C327.63 214.792 329.189 216.004 330.278 216.765C331.367 217.52 332.615 218.476 332.615 219.858C332.615 220.187 332.536 220.528 332.341 220.789C331.952 221.325 331.191 221.41 330.595 221.161C329.998 220.911 329.542 220.406 329.122 219.907C327.137 217.557 325.458 214.92 324.137 212.095C323.729 211.218 323.346 210.287 323.364 209.307C323.394 207.833 324.307 206.567 325.196 205.428C329.176 200.332 333.406 195.449 337.868 190.822C337.856 189.982 337.296 188.99 336.912 188.259C335.774 186.11 334.636 183.955 333.498 181.805C336.711 179.985 340.065 178.438 343.516 177.19C344.964 176.667 345.184 176.168 345.841 174.7L345.835 174.706Z" fill="#9E6244"/>
<path d="M300.418 156.515C301.312 158.018 301.531 160.082 301.501 162.256C301.422 167.474 299.669 172.655 296.571 176.85C294.477 179.687 291.574 182.171 288.093 182.719C286.608 182.95 285.086 182.823 283.601 182.561C280.734 182.049 277.892 181.002 275.701 179.084C273.504 177.166 272.031 174.299 272.262 171.389C272.366 170.092 272.786 168.844 273.309 167.656C275.433 162.822 279.292 158.773 284.021 156.423C287.819 154.536 292.146 153.75 296.364 154.152C299.827 154.481 301.404 157.355 301.982 160.472C302.353 162.493 302.73 164.509 303.102 166.53C303.23 167.224 303.376 167.955 303.838 168.484C304.343 169.057 305.116 169.288 305.859 169.465C309.669 170.39 313.625 170.707 317.532 170.408C318.671 170.323 319.851 170.165 320.819 169.556C322.389 168.563 323.047 166.585 323.15 164.734C323.254 162.883 323.108 160.35 323.229 158.499C325.901 159.638 328.372 157.866 331.251 157.47C334.373 157.044 337.337 158.95 339.644 161.099C341.61 162.932 343.339 165.008 344.793 167.273C346.479 169.897 348.019 173.8 346.558 176.838C346.053 177.897 345.219 178.755 344.367 179.571C341.921 181.921 339.243 184.034 336.388 185.873C335.658 186.342 334.873 186.804 334.002 186.823C332.712 186.841 331.647 185.879 330.728 184.972C330.01 184.272 328.001 181.428 326.845 182.871C326.498 183.304 326.668 184.412 326.619 184.941C326.54 185.751 326.412 186.561 326.242 187.358C326.09 188.083 325.579 191.267 324.873 191.584C323.254 192.314 321.446 192.473 319.675 192.613C312.134 193.234 304.228 193.794 297.301 190.75C297.612 185.678 296.729 180.71 296.121 175.656" fill="#E2D939"/>
<path d="M290.534 156.38C292.329 155.522 294.496 154.651 296.474 155.503C298.702 156.374 299.195 159.656 296.748 160.593C296.073 160.873 295.379 160.971 294.661 161.001C294.301 161.001 293.857 160.959 293.522 160.587C293.163 160.216 293.242 159.479 293.577 159.303C295.105 157.981 297.545 159.041 298.3 160.727C300.023 164.831 296.158 171.93 293.425 175.005C291.928 176.74 290.157 178.238 288.209 179.431C289.134 178.767 290.023 178.049 290.85 177.276C293.322 174.95 295.318 172.113 296.626 168.995C297.631 166.371 299.457 161.902 296.766 159.808C295.914 159.199 294.667 159.035 293.912 159.735C293.802 159.771 293.79 160.07 293.936 160.234C294.064 160.386 294.356 160.472 294.661 160.466C295.847 160.423 297.399 160.149 297.85 158.907C298.276 157.695 297.509 156.295 296.34 155.796C294.454 154.907 292.366 155.662 290.528 156.38H290.534Z" fill="#8A70C1"/>
<path d="M326.272 182.507C326.558 182.464 326.631 182.135 326.667 181.892C327.392 176.936 326.856 171.797 326.107 166.865C326.059 165.13 324.026 159.839 325.736 158.853C326.369 158.64 326.905 158.695 327.452 158.719C329.108 158.902 330.587 159.17 332.23 159.431C333.691 159.76 334.713 161.708 333.758 162.999C333.533 163.273 333.198 163.395 332.93 163.456C331.853 163.693 330.763 163.736 329.68 163.614C328.597 163.486 327.41 163.176 326.722 162.238C326.479 161.897 326.211 161.319 326.552 160.917C327.939 159.821 330.222 161.788 331.323 162.61C332.151 163.279 332.924 164.022 333.624 164.82C332.127 163.371 330.447 161.94 328.524 161.136C327.684 160.795 326.107 160.759 327.033 162.007C328.396 163.523 330.964 163.273 332.808 162.938C333.301 162.841 333.527 162.537 333.575 162.062C333.673 161.13 333.009 160.18 332.084 159.973C331.622 159.845 331.086 159.852 330.538 159.754C329.053 159.565 327.41 159.09 325.973 159.389C325.724 159.468 325.645 160.052 325.651 160.54C325.663 161.556 325.858 162.603 326.053 163.639C326.527 165.696 326.795 167.84 327.002 169.958C327.434 173.922 327.477 177.965 326.71 181.892C326.661 182.135 326.564 182.47 326.272 182.5V182.507Z" fill="#8A70C1"/>
<path d="M297.222 259.591L304.751 223.938L304.757 259.591H327.739L322.839 196.223L297.526 195.614L274.197 259.591H297.222Z" fill="#49327C"/>
<mask id="mask0_9354_22667" style="mask-type:luminance" maskUnits="userSpaceOnUse" x="255" y="196" width="77" height="118">
<path d="M322.816 196.887L331.811 313.139H304.751L304.727 224.602L286.036 313.139L255.854 310.497L297.502 196.278L322.816 196.887Z" fill="white"/>
</mask>
<g mask="url(#mask0_9354_22667)">
<path d="M316.473 257.88C318.11 256.803 320.124 256.693 321.78 257.807" stroke="white" stroke-miterlimit="10"/>
<path d="M274.994 257.789C271.415 249.515 281.762 245.253 288.457 244.644C300.021 243.427 310.977 243.427 322.541 243.427C329.845 243.427 335.931 250.733 334.689 257.942" stroke="white" stroke-miterlimit="10"/>
<path d="M326.6 201.611C323.149 207.505 316.454 208.723 309.759 209.94C305.499 210.549 301.238 208.723 298.195 205.678C296.369 203.852 295.152 200.808 296.978 198.372C300.021 194.111 305.499 195.937 309.759 197.764C312.802 199.59 314.02 202.025 314.628 205.07C315.845 212.376 311.585 219.073 311.585 226.379C312.194 231.25 315.237 236.729 320.715 236.121C326.801 234.903 328.627 225.77 325.584 220.9C317.671 217.246 309.15 223.335 301.238 225.77C295.76 227.597 287.848 226.379 287.848 219.682C287.848 216.638 291.5 214.202 293.326 216.029C300.021 220.9 296.978 230.641 296.369 237.947C296.369 245.253 294.543 254.386 286.734 257.917" stroke="white" stroke-miterlimit="10"/>
</g>
<path d="M328.043 126.541C328.05 126.584 328.062 126.633 328.068 126.675C328.317 128.331 327.916 130.012 327.757 131.68C327.599 133.348 327.745 135.193 328.877 136.435C329.309 136.91 329.875 137.281 330.186 137.841C331.543 140.246 327.374 142.615 329.242 144.52C329.468 144.752 329.754 144.922 329.906 145.202C330.362 146.03 329.425 146.883 328.823 147.613C326.102 150.95 331.409 152.892 330.758 155.979C330.539 157.02 329.474 157.671 329.078 158.664C328.342 160.509 330.277 162.414 329.614 164.162C329.017 165.72 327.404 165.641 327.38 167.857C327.368 168.99 327.538 170.195 327.021 171.2C325.42 171.035 324.41 170.981 322.967 171.413C321.525 171.845 320.381 172.375 318.762 172.077C317.374 171.827 316.102 170.615 314.647 170.798C313.521 170.938 312.615 171.967 311.476 171.955C310.357 171.943 309.444 170.908 308.324 170.883C307.119 170.859 306.029 172.016 304.854 171.73C304.148 171.559 303.674 170.914 303.15 170.414C301.86 169.191 301.562 170.354 300.314 170.463C298.853 170.591 297.575 169.526 296.973 168.271C296.364 166.999 296.638 165.921 296.486 164.649C296.37 163.638 295.847 162.932 295.597 161.921C294.982 159.382 298.494 157.263 297.995 154.7C297.776 153.574 296.827 152.758 296.279 151.747C295.384 150.085 295.646 148.076 295.682 146.195C295.725 144.052 294.934 143.151 294.075 141.415C293.503 140.252 293.303 138.432 294.459 137.379C295.037 136.849 295.877 136.666 296.425 136.1C297.758 134.736 296.547 132.325 297.332 130.59C297.916 129.293 299.492 128.654 300.028 127.333C300.277 126.706 300.259 126.006 300.326 125.336C300.984 118.663 311.221 115.649 316.717 117.037C319.139 117.652 321.403 118.913 323.217 120.623C324.848 122.164 327.587 124.276 328.025 126.547L328.043 126.541Z" fill="#2C1B18"/>
</g>
<defs>
<clipPath id="clip0_9354_22667">
<rect width="434" height="434" fill="white"/>
</clipPath>
</defs>
</svg>
