<svg width="292" height="292" viewBox="0 0 292 292" fill="none" xmlns="http://www.w3.org/2000/svg">
<path opacity="0.1" d="M212.348 220.993C251.064 182.278 251.064 119.508 212.348 80.7921C173.633 42.0767 110.863 42.0767 72.1473 80.7921C33.4319 119.508 33.4319 182.278 72.1473 220.993C110.863 259.708 173.633 259.708 212.348 220.993Z" fill="black" stroke="#231F20" stroke-width="1.25" stroke-miterlimit="10"/>
<path d="M218.946 210.302C257.661 171.586 257.661 108.816 218.946 70.1007C180.23 31.3853 117.46 31.3853 78.745 70.1007C40.0296 108.816 40.0296 171.586 78.745 210.302C117.46 249.017 180.23 249.017 218.946 210.302Z" fill="white"/>
<path d="M205.029 196.245C199.348 201.926 192.768 206.759 185.438 210.572C166.637 220.342 145.167 222.21 124.961 215.832C104.761 209.448 88.2542 195.584 78.4843 176.783C68.7093 157.988 66.8469 136.513 73.2249 116.307C79.608 96.1068 93.4721 79.6001 112.273 69.8302C151.077 49.6611 199.057 64.8152 219.231 103.624C229.006 122.42 230.869 143.895 224.486 164.106C220.594 176.424 213.915 187.37 205.029 196.256L205.029 196.245ZM95.9223 87.3878C87.5519 95.7583 81.2624 106.074 77.5948 117.681C71.581 136.71 73.3393 156.947 82.5421 174.661C91.7501 192.369 107.305 205.437 126.335 211.451C145.365 217.465 165.601 215.707 183.315 206.504C201.024 197.296 214.092 181.741 220.105 162.711C226.119 143.681 224.361 123.445 215.158 105.731C196.149 69.1695 150.947 54.8893 114.385 73.888C107.477 77.4775 101.275 82.0347 95.9223 87.3878Z" fill="#EF6535"/>
<path d="M145.537 169.743C151.983 173.369 158.074 175.153 163.818 175.101C169.561 175.049 173.999 173.556 177.136 170.637C180.267 167.714 182.036 163.916 182.431 159.234L168.214 157.127C168.219 159.64 167.792 161.981 166.918 164.145C166.05 166.304 164.707 168.062 162.902 169.43C161.092 170.793 158.584 171.366 155.374 171.142C152.165 170.918 148.575 169.722 144.606 167.563L121.56 113.324C120.847 111.644 120.634 110.14 120.936 108.819C121.237 107.498 123.672 103.481 123.75 103.05L94.2739 115.577C94.6381 115.816 99.2213 116.851 100.381 117.553C101.542 118.256 102.483 119.447 103.196 121.127L126.315 175.533C127.027 177.213 127.235 178.722 126.939 180.038C126.637 181.359 124.203 185.375 124.125 185.807L150.401 181.203L145.532 169.748L145.537 169.743Z" fill="black"/>
<path d="M201.93 157.809C201.046 160.004 199.49 161.57 197.264 162.517C195.037 163.464 192.821 163.495 190.636 162.61C188.446 161.731 186.875 160.171 185.928 157.944C184.981 155.717 184.95 153.501 185.84 151.311C186.724 149.116 188.279 147.55 190.511 146.598C192.743 145.646 194.949 145.625 197.139 146.504C199.334 147.389 200.9 148.944 201.852 151.176C202.804 153.408 202.83 155.619 201.946 157.804" fill="black"/>
<path d="M223.758 113.911L219.425 115.467C205.379 76.3668 162.361 55.9063 123.526 69.8535C84.6914 83.8008 64.517 126.959 78.5631 166.059L74.2296 167.614C59.3251 126.126 80.7481 80.3257 121.971 65.5201C163.193 50.7144 208.864 72.4235 223.758 113.911Z" fill="#6643A3"/>
</svg>
