<svg width="92" height="88" viewBox="0 0 92 88" fill="none" xmlns="http://www.w3.org/2000/svg">
<path d="M58.9238 2.36298C34.9461 -5.01776 9.80119 7.55169 2.75568 30.4403C-4.28982 53.3289 9.43404 77.8628 33.4117 85.2435C57.3893 92.6243 82.5343 80.0548 89.5798 57.1662C96.6253 34.2777 82.9126 9.74715 58.9238 2.36298ZM69.5467 51.5013C68.6473 52.2394 67.6764 52.9321 66.6721 53.6145C57.76 59.6202 47.1933 63.1802 37.2275 67.3685C36.8507 67.5208 27.8445 50.7267 27.0574 49.1546C24.2694 43.6419 21.1057 37.5236 21.5492 31.2791C22.0117 24.8538 27.4001 19.5366 34.1648 19.3558C35.8883 19.3147 37.6513 19.5424 39.4038 20.0819C45.0745 21.8274 49.0723 26.3476 50.253 31.5639C54.1626 27.9145 60.0103 26.4249 65.681 28.1704C66.0271 28.277 66.3587 28.3907 66.6981 28.5185C71.795 30.4607 75.1212 35.2175 75.2966 40.4043C75.4601 45.2724 72.9831 48.6745 69.5467 51.5013Z" fill="white"/>
</svg>
