<svg width="1121" height="320" viewBox="0 0 1121 320" fill="none" xmlns="http://www.w3.org/2000/svg">
<path d="M167.388 320V64.8L145.788 320H91.7875L70.1875 64.8V320H0.187501V1.59997H107.788L116.588 163.6H120.988L129.388 1.59997H237.388V320H167.388ZM396.113 262.4C393.713 273.067 389.979 282.667 384.913 291.2C380.379 298.4 374.113 305.067 366.113 311.2C358.379 317.067 348.113 320 335.313 320H257.713V246.4H313.713V246C319.046 246 322.779 244.933 324.913 242.8C327.313 240.667 328.913 236.933 329.713 231.6H287.313L257.713 1.59997H328.113L341.713 159.6H345.713L359.313 1.59997H429.713L396.113 262.4ZM649.194 320H536.394L506.794 0.799985H577.194L590.794 251.6H594.794L608.394 0.799985H678.794L649.194 320ZM693.906 320V1.59997H764.706V320H693.906ZM943.825 260.8C943.825 268.8 942.225 276.4 939.025 283.6C936.092 290.8 931.825 297.2 926.225 302.8C920.892 308.133 914.625 312.4 907.425 315.6C900.225 318.533 892.625 320 884.625 320H788.625V1.59997H884.625C892.625 1.59997 899.958 3.19998 906.625 6.39998C913.558 9.33331 919.425 13.6 924.225 19.2C929.292 24.5333 933.158 30.8 935.825 38C938.492 45.2 939.825 52.8 939.825 60.8V74.4C939.825 82.4 938.492 90 935.825 97.2C933.425 104.133 929.825 110.267 925.025 115.6C920.492 120.933 914.892 125.333 908.225 128.8C901.825 132 894.758 133.733 887.025 134C894.758 134.267 902.092 136 909.025 139.2C915.958 142.4 921.958 146.8 927.025 152.4C932.358 157.733 936.492 163.867 939.425 170.8C942.358 177.733 943.825 185.2 943.825 193.2V260.8ZM873.425 158.8C873.425 155.067 871.958 152.267 869.025 150.4C866.092 148.267 862.892 147.2 859.425 147.2V252.8C862.892 252.8 866.092 251.867 869.025 250C871.958 247.867 873.425 244.933 873.425 241.2V158.8ZM873.425 72.8C873.425 69.0667 871.958 66.1333 869.025 64C866.092 61.8667 862.892 60.8 859.425 60.8V114.8C862.892 114.8 866.092 113.867 869.025 112C871.958 109.867 873.425 106.933 873.425 103.2V72.8ZM1120.12 260.8C1120.12 268.8 1118.65 276.4 1115.72 283.6C1113.05 290.8 1109.19 297.067 1104.12 302.4C1099.32 307.733 1093.45 312 1086.52 315.2C1079.59 318.4 1071.99 320 1063.72 320H1026.92C1018.92 320 1011.32 318.533 1004.12 315.6C996.919 312.4 990.519 308.133 984.919 302.8C979.585 297.2 975.319 290.8 972.119 283.6C969.185 276.4 967.719 268.8 967.719 260.8V60.8C967.719 52.8 969.185 45.2 972.119 38C975.319 30.8 979.585 24.5333 984.919 19.2C990.519 13.6 996.919 9.33331 1004.12 6.39998C1011.32 3.19998 1018.92 1.59997 1026.92 1.59997H1063.72C1071.99 1.59997 1079.59 3.19998 1086.52 6.39998C1093.45 9.59999 1099.32 13.8667 1104.12 19.2C1109.19 24.5333 1113.05 30.8 1115.72 38C1118.65 45.2 1120.12 52.8 1120.12 60.8V156H1038.12V253.2C1041.85 253.2 1045.19 252.267 1048.12 250.4C1051.05 248.267 1052.52 245.333 1052.52 241.6V170H1120.12V260.8ZM1052.52 72.8C1052.52 68.8 1051.05 65.8667 1048.12 64C1045.19 61.8667 1041.85 60.8 1038.12 60.8V128.4H1052.52V72.8Z" fill="white"/>
</svg>
