<svg width="1343" height="319" viewBox="0 0 1343 319" fill="none" xmlns="http://www.w3.org/2000/svg">
<path d="M167.802 319V63.8L146.202 319H92.2016L70.6016 63.8V319H0.601563V0.599975H108.202L117.002 162.6H121.402L129.802 0.599975H237.802V319H167.802ZM396.527 261.4C394.127 272.067 390.393 281.667 385.327 290.2C380.793 297.4 374.527 304.067 366.527 310.2C358.793 316.067 348.527 319 335.727 319H258.127V245.4H314.127V245C319.46 245 323.193 243.933 325.327 241.8C327.727 239.667 329.327 235.933 330.127 230.6H287.727L258.127 0.599975H328.527L342.127 158.6H346.127L359.727 0.599975H430.127L396.527 261.4ZM671.208 259.8C671.208 267.8 669.608 275.4 666.408 282.6C663.474 289.8 659.341 296.2 654.008 301.8C648.674 307.133 642.408 311.4 635.208 314.6C628.008 317.533 620.274 319 612.008 319H575.208C567.208 319 559.608 317.533 552.408 314.6C545.208 311.4 538.808 307.133 533.208 301.8C527.874 296.2 523.608 289.8 520.408 282.6C517.474 275.4 516.008 267.8 516.008 259.8V193.8H586.408V247.4C590.141 247.4 593.474 246.6 596.408 245C599.341 243.133 600.808 239.933 600.808 235.4V179.8H516.008V59.8C516.008 51.8 517.474 44.2 520.408 37C523.608 29.8 527.874 23.5333 533.208 18.2C538.808 12.6 545.208 8.33331 552.408 5.39998C559.608 2.19998 567.208 0.599975 575.208 0.599975H612.008C620.274 0.599975 628.008 2.19998 635.208 5.39998C642.408 8.33331 648.674 12.6 654.008 18.2C659.341 23.5333 663.474 29.8 666.408 37C669.608 44.2 671.208 51.8 671.208 59.8V144.6H600.808V78.6C600.808 72.7333 599.074 69.1333 595.608 67.8C592.141 66.2 589.474 65.4 587.608 65.4H586.408V159H671.208V259.8ZM765.502 90.2V252.2C769.235 252.2 772.568 251.267 775.502 249.4C778.435 247.267 779.902 244.333 779.902 240.6V113.4H850.302V259.8C850.302 267.8 848.702 275.4 845.502 282.6C842.568 289.8 838.435 296.2 833.102 301.8C827.768 307.133 821.502 311.4 814.302 314.6C807.102 317.533 799.368 319 791.102 319H754.302C746.302 319 738.702 317.533 731.502 314.6C724.568 311.4 718.302 307.133 712.702 301.8C707.368 296.2 703.102 289.8 699.902 282.6C696.702 275.4 695.102 267.8 695.102 259.8V0.599975H765.502V79H850.702V90.2H765.502ZM1009 261.4C1006.6 272.067 1002.86 281.667 997.795 290.2C993.262 297.4 986.995 304.067 978.995 310.2C971.262 316.067 960.995 319 948.195 319H870.595V245.4H926.595V245C931.929 245 935.662 243.933 937.795 241.8C940.195 239.667 941.795 235.933 942.595 230.6H900.195L870.595 0.599975H940.995L954.595 158.6H958.595L972.195 0.599975H1042.6L1009 261.4ZM1057.98 319V0.599975H1128.78V252.2H1165.98V319H1057.98ZM1342.2 259.8C1342.2 267.8 1340.74 275.4 1337.8 282.6C1335.14 289.8 1331.27 296.067 1326.2 301.4C1321.4 306.733 1315.54 311 1308.6 314.2C1301.67 317.4 1294.07 319 1285.8 319H1249C1241 319 1233.4 317.533 1226.2 314.6C1219 311.4 1212.6 307.133 1207 301.8C1201.67 296.2 1197.4 289.8 1194.2 282.6C1191.27 275.4 1189.8 267.8 1189.8 259.8V59.8C1189.8 51.8 1191.27 44.2 1194.2 37C1197.4 29.8 1201.67 23.5333 1207 18.2C1212.6 12.6 1219 8.33331 1226.2 5.39998C1233.4 2.19998 1241 0.599975 1249 0.599975H1285.8C1294.07 0.599975 1301.67 2.19998 1308.6 5.39998C1315.54 8.59999 1321.4 12.8667 1326.2 18.2C1331.27 23.5333 1335.14 29.8 1337.8 37C1340.74 44.2 1342.2 51.8 1342.2 59.8V155H1260.2V252.2C1263.94 252.2 1267.27 251.267 1270.2 249.4C1273.14 247.267 1274.6 244.333 1274.6 240.6V169H1342.2V259.8ZM1274.6 71.8C1274.6 67.8 1273.14 64.8667 1270.2 63C1267.27 60.8667 1263.94 59.8 1260.2 59.8V127.4H1274.6V71.8Z" fill="white"/>
</svg>
