<svg width="1304" height="319" viewBox="0 0 1304 319" fill="none" xmlns="http://www.w3.org/2000/svg">
<path d="M167.388 319V63.8L145.788 319H91.7875L70.1875 63.8V319H0.187501V0.599975H107.788L116.588 162.6H120.988L129.388 0.599975H237.388V319H167.388ZM396.113 261.4C393.713 272.067 389.979 281.667 384.913 290.2C380.379 297.4 374.113 304.067 366.113 310.2C358.379 316.067 348.113 319 335.313 319H257.713V245.4H313.713V245C319.046 245 322.779 243.933 324.913 241.8C327.313 239.667 328.913 235.933 329.713 230.6H287.313L257.713 0.599975H328.113L341.713 158.6H345.713L359.313 0.599975H429.713L396.113 261.4ZM585.994 90.2V252.2C589.727 252.2 593.06 251.267 595.994 249.4C598.927 247.267 600.394 244.333 600.394 240.6V113.4H670.794V259.8C670.794 267.8 669.194 275.4 665.994 282.6C663.06 289.8 658.927 296.2 653.594 301.8C648.26 307.133 641.994 311.4 634.794 314.6C627.594 317.533 619.86 319 611.594 319H574.794C566.794 319 559.194 317.533 551.994 314.6C545.06 311.4 538.794 307.133 533.194 301.8C527.86 296.2 523.594 289.8 520.394 282.6C517.194 275.4 515.594 267.8 515.594 259.8V0.599975H585.994V79H671.194V90.2H585.994ZM787.488 319L773.488 211H765.488V319H694.688V0.599975H790.688C798.688 0.599975 806.288 2.19998 813.488 5.39998C820.688 8.33331 826.954 12.6 832.288 18.2C837.888 23.5333 842.154 29.8 845.088 37C848.288 44.2 849.888 51.8 849.888 59.8V125.4C849.888 133.4 848.288 141.133 845.088 148.6C842.154 155.8 838.021 162.067 832.688 167.4C827.354 172.733 821.088 177 813.888 180.2C806.688 183.4 798.954 185 790.688 185H775.888C775.888 187.933 776.821 190.333 778.688 192.2C780.554 193.8 783.488 194.6 787.488 194.6H840.288L862.688 319H787.488ZM779.488 71.8C779.488 68.0667 778.021 65.1333 775.088 63C772.154 60.8667 768.954 59.8 765.488 59.8V165.8C768.954 165.8 772.154 164.867 775.088 163C778.021 160.867 779.488 157.933 779.488 154.2V71.8ZM876.906 319V0.599975H947.706V319H876.906ZM1126.83 259.8C1126.83 267.8 1125.23 275.4 1122.03 282.6C1119.09 289.8 1114.83 296.2 1109.23 301.8C1103.89 307.133 1097.63 311.4 1090.43 314.6C1083.23 317.533 1075.63 319 1067.63 319H971.625V0.599975H1067.63C1075.63 0.599975 1082.96 2.19998 1089.63 5.39998C1096.56 8.33331 1102.43 12.6 1107.23 18.2C1112.29 23.5333 1116.16 29.8 1118.83 37C1121.49 44.2 1122.83 51.8 1122.83 59.8V73.4C1122.83 81.4 1121.49 89 1118.83 96.2C1116.43 103.133 1112.83 109.267 1108.03 114.6C1103.49 119.933 1097.89 124.333 1091.23 127.8C1084.83 131 1077.76 132.733 1070.03 133C1077.76 133.267 1085.09 135 1092.03 138.2C1098.96 141.4 1104.96 145.8 1110.03 151.4C1115.36 156.733 1119.49 162.867 1122.43 169.8C1125.36 176.733 1126.83 184.2 1126.83 192.2V259.8ZM1056.43 157.8C1056.43 154.067 1054.96 151.267 1052.03 149.4C1049.09 147.267 1045.89 146.2 1042.43 146.2V251.8C1045.89 251.8 1049.09 250.867 1052.03 249C1054.96 246.867 1056.43 243.933 1056.43 240.2V157.8ZM1056.43 71.8C1056.43 68.0667 1054.96 65.1333 1052.03 63C1049.09 60.8667 1045.89 59.8 1042.43 59.8V113.8C1045.89 113.8 1049.09 112.867 1052.03 111C1054.96 108.867 1056.43 105.933 1056.43 102.2V71.8ZM1303.12 259.8C1303.12 267.8 1301.65 275.4 1298.72 282.6C1296.05 289.8 1292.19 296.067 1287.12 301.4C1282.32 306.733 1276.45 311 1269.52 314.2C1262.59 317.4 1254.99 319 1246.72 319H1209.92C1201.92 319 1194.32 317.533 1187.12 314.6C1179.92 311.4 1173.52 307.133 1167.92 301.8C1162.59 296.2 1158.32 289.8 1155.12 282.6C1152.19 275.4 1150.72 267.8 1150.72 259.8V59.8C1150.72 51.8 1152.19 44.2 1155.12 37C1158.32 29.8 1162.59 23.5333 1167.92 18.2C1173.52 12.6 1179.92 8.33331 1187.12 5.39998C1194.32 2.19998 1201.92 0.599975 1209.92 0.599975H1246.72C1254.99 0.599975 1262.59 2.19998 1269.52 5.39998C1276.45 8.59999 1282.32 12.8667 1287.12 18.2C1292.19 23.5333 1296.05 29.8 1298.72 37C1301.65 44.2 1303.12 51.8 1303.12 59.8V155H1221.12V252.2C1224.85 252.2 1228.19 251.267 1231.12 249.4C1234.05 247.267 1235.52 244.333 1235.52 240.6V169H1303.12V259.8ZM1235.52 71.8C1235.52 67.8 1234.05 64.8667 1231.12 63C1228.19 60.8667 1224.85 59.8 1221.12 59.8V127.4H1235.52V71.8Z" fill="white"/>
</svg>
