<svg width="22" height="22" viewBox="0 0 22 22" fill="none" xmlns="http://www.w3.org/2000/svg">
<path d="M20.375 8.65625H13.3438V1.625C13.3438 0.762207 12.644 0.0625 11.7812 0.0625H10.2188C9.35596 0.0625 8.65625 0.762207 8.65625 1.625V8.65625H1.625C0.762207 8.65625 0.0625 9.35596 0.0625 10.2188V11.7812C0.0625 12.644 0.762207 13.3438 1.625 13.3438H8.65625V20.375C8.65625 21.2378 9.35596 21.9375 10.2188 21.9375H11.7812C12.644 21.9375 13.3438 21.2378 13.3438 20.375V13.3438H20.375C21.2378 13.3438 21.9375 12.644 21.9375 11.7812V10.2188C21.9375 9.35596 21.2378 8.65625 20.375 8.65625Z" fill="#E2D939"/>
</svg>
